%
M48
M72
T01C0.0236
T02C0.0320
T03C0.0354
T04C0.0400
T05C0.0440
T06C0.0472
T07C0.1575
%
T01
X16600Y11192
T02
X15265Y12256
X14265Y12256
X13265Y12256
X12265Y12256
X9596Y12256
X8596Y12256
X7596Y12256
X6596Y12256
X6596Y15256
X7596Y15256
X8596Y15256
X9596Y15256
X12265Y15256
X13265Y15256
X14265Y15256
X15265Y15256
T03
X16507Y17192
X21033Y17671
X22646Y17636
X22646Y14636
X21033Y14671
X16507Y20192
X9600Y20192
X9600Y17192
T04
X19100Y20692
X20100Y20692
X21100Y20692
X22100Y20692
X23100Y20692
X24100Y20692
X25100Y20692
X26100Y20692
X27100Y20692
X28100Y20692
X29100Y20692
X30100Y20692
X31100Y20692
X32100Y20692
X33100Y20692
X33100Y11692
X32100Y11692
X31100Y11692
X30100Y11692
X29100Y11692
X28100Y11692
X27100Y11692
X26100Y11692
X25100Y11692
X24100Y11692
X23100Y11692
X22100Y11692
X21100Y11692
X20100Y11692
X19100Y11692
X17100Y7692
X17100Y6692
X17100Y5692
X17100Y3692
X17100Y2692
X17100Y1692
X8000Y3272
X8000Y6272
X33100Y6692
X33100Y7692
X33100Y5692
X33100Y3692
X33100Y2692
X33100Y1692
T05
X4194Y6763
X1596Y6763
X1596Y10763
X4194Y10763
X4116Y12354
X1596Y12354
X1596Y16354
X4116Y16354
T06
X4722Y19192
X6100Y19192
X12222Y19192
X13600Y19192
T07
X1541Y2134
X1541Y20511
X35667Y20511
X35667Y2134
M30
