G75*
%MOIN*%
%OFA0B0*%
%FSLAX25Y25*%
%IPPOS*%
%LPD*%
%AMOC8*
5,1,8,0,0,1.08239X$1,22.5*
%
%ADD10C,0.06600*%
%ADD11R,0.08000X0.08000*%
%ADD12C,0.08000*%
%ADD13C,0.06400*%
%ADD14C,0.07400*%
%ADD15C,0.07600*%
%ADD16OC8,0.12400*%
%ADD17C,0.12400*%
%ADD18C,0.05000*%
%ADD19C,0.06600*%
%ADD20C,0.04362*%
%ADD21C,0.01600*%
D10*
X0065956Y0122556D03*
X0075956Y0122556D03*
X0085956Y0122556D03*
X0095956Y0122556D03*
X0122652Y0122556D03*
X0132652Y0122556D03*
X0142652Y0122556D03*
X0152652Y0122556D03*
X0152652Y0152556D03*
X0142652Y0152556D03*
X0132652Y0152556D03*
X0122652Y0152556D03*
X0095956Y0152556D03*
X0085956Y0152556D03*
X0075956Y0152556D03*
X0065956Y0152556D03*
D11*
X0061000Y0191924D03*
X0136000Y0191924D03*
D12*
X0122220Y0191924D03*
X0047220Y0191924D03*
D13*
X0191000Y0203724D02*
X0191000Y0210124D01*
X0201000Y0210124D02*
X0201000Y0203724D01*
X0211000Y0203724D02*
X0211000Y0210124D01*
X0221000Y0210124D02*
X0221000Y0203724D01*
X0231000Y0203724D02*
X0231000Y0210124D01*
X0241000Y0210124D02*
X0241000Y0203724D01*
X0251000Y0203724D02*
X0251000Y0210124D01*
X0261000Y0210124D02*
X0261000Y0203724D01*
X0271000Y0203724D02*
X0271000Y0210124D01*
X0281000Y0210124D02*
X0281000Y0203724D01*
X0291000Y0203724D02*
X0291000Y0210124D01*
X0301000Y0210124D02*
X0301000Y0203724D01*
X0311000Y0203724D02*
X0311000Y0210124D01*
X0321000Y0210124D02*
X0321000Y0203724D01*
X0331000Y0203724D02*
X0331000Y0210124D01*
X0331000Y0120124D02*
X0331000Y0113724D01*
X0321000Y0113724D02*
X0321000Y0120124D01*
X0311000Y0120124D02*
X0311000Y0113724D01*
X0301000Y0113724D02*
X0301000Y0120124D01*
X0291000Y0120124D02*
X0291000Y0113724D01*
X0281000Y0113724D02*
X0281000Y0120124D01*
X0271000Y0120124D02*
X0271000Y0113724D01*
X0261000Y0113724D02*
X0261000Y0120124D01*
X0251000Y0120124D02*
X0251000Y0113724D01*
X0241000Y0113724D02*
X0241000Y0120124D01*
X0231000Y0120124D02*
X0231000Y0113724D01*
X0221000Y0113724D02*
X0221000Y0120124D01*
X0211000Y0120124D02*
X0211000Y0113724D01*
X0201000Y0113724D02*
X0201000Y0120124D01*
X0191000Y0120124D02*
X0191000Y0113724D01*
X0174200Y0076924D02*
X0167800Y0076924D01*
X0167800Y0066924D02*
X0174200Y0066924D01*
X0174200Y0056924D02*
X0167800Y0056924D01*
X0167800Y0036924D02*
X0174200Y0036924D01*
X0174200Y0026924D02*
X0167800Y0026924D01*
X0167800Y0016924D02*
X0174200Y0016924D01*
X0327800Y0016924D02*
X0334200Y0016924D01*
X0334200Y0026924D02*
X0327800Y0026924D01*
X0327800Y0036924D02*
X0334200Y0036924D01*
X0334200Y0056924D02*
X0327800Y0056924D01*
X0327800Y0066924D02*
X0334200Y0066924D01*
X0334200Y0076924D02*
X0327800Y0076924D01*
D14*
X0226460Y0146364D03*
X0210329Y0146715D03*
X0165069Y0171924D03*
X0210329Y0176715D03*
X0226460Y0176364D03*
X0165069Y0201924D03*
X0096000Y0201924D03*
X0096000Y0171924D03*
D15*
X0041157Y0163539D03*
X0015961Y0163539D03*
X0015961Y0123539D03*
X0041157Y0123539D03*
X0041945Y0107633D03*
X0015961Y0107633D03*
X0015961Y0067633D03*
X0041945Y0067633D03*
D16*
X0080000Y0032724D03*
D17*
X0080000Y0062724D03*
D18*
X0080000Y0032724D02*
X0045091Y0067633D01*
X0041945Y0067633D01*
X0015961Y0067633D01*
X0015961Y0107633D02*
X0026000Y0117672D01*
X0026000Y0156924D01*
X0019386Y0163539D01*
X0015961Y0163539D01*
X0016000Y0180524D01*
X0027400Y0191924D01*
X0047220Y0191924D01*
X0061000Y0191924D02*
X0061000Y0183381D01*
X0041157Y0163539D01*
X0056000Y0171924D02*
X0061000Y0176924D01*
X0061000Y0191924D01*
X0061000Y0167512D01*
X0075956Y0152556D01*
X0075956Y0141968D01*
X0081000Y0136924D01*
X0125800Y0136924D01*
X0132652Y0143776D01*
X0132652Y0152556D01*
X0152652Y0152556D02*
X0152652Y0159507D01*
X0165069Y0171924D01*
X0136000Y0191924D02*
X0146000Y0201924D01*
X0165069Y0201924D01*
X0122220Y0191924D02*
X0112220Y0201924D01*
X0096000Y0201924D01*
X0096000Y0171924D02*
X0095956Y0171880D01*
X0095956Y0152556D01*
X0056000Y0171924D02*
X0056000Y0121688D01*
X0041945Y0107633D01*
X0191000Y0116924D02*
X0191000Y0126924D01*
X0196000Y0131924D01*
X0211000Y0131924D01*
X0225439Y0146364D01*
X0226460Y0146364D01*
X0271561Y0146364D01*
X0281000Y0136924D01*
X0281000Y0116924D01*
X0210329Y0176715D02*
X0231000Y0197386D01*
X0231000Y0206924D01*
D19*
X0166000Y0111924D02*
X0181000Y0096924D01*
X0281000Y0096924D01*
X0301000Y0076924D01*
X0331000Y0076924D01*
X0331000Y0066924D01*
X0331000Y0056924D01*
D20*
X0166000Y0111924D03*
D21*
X0156000Y0111924D02*
X0181000Y0136924D01*
X0200539Y0136924D01*
X0210329Y0146715D01*
X0210791Y0146715D01*
X0231000Y0166924D01*
X0296000Y0166924D01*
X0321000Y0191924D01*
X0321000Y0206924D01*
X0311000Y0206924D02*
X0311000Y0191924D01*
X0295439Y0176364D01*
X0226460Y0176364D01*
X0225439Y0176364D01*
X0191000Y0141924D01*
X0152020Y0141924D01*
X0132652Y0122556D01*
X0156000Y0111924D02*
X0086000Y0111924D01*
X0075956Y0121968D01*
X0075956Y0122556D01*
M02*
