G75*
%MOIN*%
%OFA0B0*%
%FSLAX25Y25*%
%IPPOS*%
%LPD*%
%AMOC8*
5,1,8,0,0,1.08239X$1,22.5*
%
%ADD10C,0.00000*%
D10*
X0011000Y0006924D02*
X0361079Y0006924D01*
X0361321Y0006927D01*
X0361562Y0006936D01*
X0361803Y0006950D01*
X0362044Y0006971D01*
X0362284Y0006997D01*
X0362524Y0007029D01*
X0362763Y0007067D01*
X0363000Y0007110D01*
X0363237Y0007160D01*
X0363472Y0007215D01*
X0363706Y0007275D01*
X0363938Y0007342D01*
X0364169Y0007413D01*
X0364398Y0007491D01*
X0364625Y0007574D01*
X0364850Y0007662D01*
X0365073Y0007756D01*
X0365293Y0007855D01*
X0365511Y0007960D01*
X0365726Y0008069D01*
X0365939Y0008184D01*
X0366149Y0008304D01*
X0366355Y0008429D01*
X0366559Y0008559D01*
X0366760Y0008694D01*
X0366957Y0008834D01*
X0367151Y0008978D01*
X0367341Y0009127D01*
X0367527Y0009281D01*
X0367710Y0009439D01*
X0367889Y0009601D01*
X0368064Y0009768D01*
X0368235Y0009939D01*
X0368402Y0010114D01*
X0368564Y0010293D01*
X0368722Y0010476D01*
X0368876Y0010662D01*
X0369025Y0010852D01*
X0369169Y0011046D01*
X0369309Y0011243D01*
X0369444Y0011444D01*
X0369574Y0011648D01*
X0369699Y0011854D01*
X0369819Y0012064D01*
X0369934Y0012277D01*
X0370043Y0012492D01*
X0370148Y0012710D01*
X0370247Y0012930D01*
X0370341Y0013153D01*
X0370429Y0013378D01*
X0370512Y0013605D01*
X0370590Y0013834D01*
X0370661Y0014065D01*
X0370728Y0014297D01*
X0370788Y0014531D01*
X0370843Y0014766D01*
X0370893Y0015003D01*
X0370936Y0015240D01*
X0370974Y0015479D01*
X0371006Y0015719D01*
X0371032Y0015959D01*
X0371053Y0016200D01*
X0371067Y0016441D01*
X0371076Y0016682D01*
X0371079Y0016924D01*
X0371079Y0209523D01*
X0371076Y0209765D01*
X0371067Y0210006D01*
X0371053Y0210247D01*
X0371032Y0210488D01*
X0371006Y0210728D01*
X0370974Y0210968D01*
X0370936Y0211207D01*
X0370893Y0211444D01*
X0370843Y0211681D01*
X0370788Y0211916D01*
X0370728Y0212150D01*
X0370661Y0212382D01*
X0370590Y0212613D01*
X0370512Y0212842D01*
X0370429Y0213069D01*
X0370341Y0213294D01*
X0370247Y0213517D01*
X0370148Y0213737D01*
X0370043Y0213955D01*
X0369934Y0214170D01*
X0369819Y0214383D01*
X0369699Y0214593D01*
X0369574Y0214799D01*
X0369444Y0215003D01*
X0369309Y0215204D01*
X0369169Y0215401D01*
X0369025Y0215595D01*
X0368876Y0215785D01*
X0368722Y0215971D01*
X0368564Y0216154D01*
X0368402Y0216333D01*
X0368235Y0216508D01*
X0368064Y0216679D01*
X0367889Y0216846D01*
X0367710Y0217008D01*
X0367527Y0217166D01*
X0367341Y0217320D01*
X0367151Y0217469D01*
X0366957Y0217613D01*
X0366760Y0217753D01*
X0366559Y0217888D01*
X0366355Y0218018D01*
X0366149Y0218143D01*
X0365939Y0218263D01*
X0365726Y0218378D01*
X0365511Y0218487D01*
X0365293Y0218592D01*
X0365073Y0218691D01*
X0364850Y0218785D01*
X0364625Y0218873D01*
X0364398Y0218956D01*
X0364169Y0219034D01*
X0363938Y0219105D01*
X0363706Y0219172D01*
X0363472Y0219232D01*
X0363237Y0219287D01*
X0363000Y0219337D01*
X0362763Y0219380D01*
X0362524Y0219418D01*
X0362284Y0219450D01*
X0362044Y0219476D01*
X0361803Y0219497D01*
X0361562Y0219511D01*
X0361321Y0219520D01*
X0361079Y0219523D01*
X0011000Y0219523D01*
X0010758Y0219520D01*
X0010517Y0219511D01*
X0010276Y0219497D01*
X0010035Y0219476D01*
X0009795Y0219450D01*
X0009555Y0219418D01*
X0009316Y0219380D01*
X0009079Y0219337D01*
X0008842Y0219287D01*
X0008607Y0219232D01*
X0008373Y0219172D01*
X0008141Y0219105D01*
X0007910Y0219034D01*
X0007681Y0218956D01*
X0007454Y0218873D01*
X0007229Y0218785D01*
X0007006Y0218691D01*
X0006786Y0218592D01*
X0006568Y0218487D01*
X0006353Y0218378D01*
X0006140Y0218263D01*
X0005930Y0218143D01*
X0005724Y0218018D01*
X0005520Y0217888D01*
X0005319Y0217753D01*
X0005122Y0217613D01*
X0004928Y0217469D01*
X0004738Y0217320D01*
X0004552Y0217166D01*
X0004369Y0217008D01*
X0004190Y0216846D01*
X0004015Y0216679D01*
X0003844Y0216508D01*
X0003677Y0216333D01*
X0003515Y0216154D01*
X0003357Y0215971D01*
X0003203Y0215785D01*
X0003054Y0215595D01*
X0002910Y0215401D01*
X0002770Y0215204D01*
X0002635Y0215003D01*
X0002505Y0214799D01*
X0002380Y0214593D01*
X0002260Y0214383D01*
X0002145Y0214170D01*
X0002036Y0213955D01*
X0001931Y0213737D01*
X0001832Y0213517D01*
X0001738Y0213294D01*
X0001650Y0213069D01*
X0001567Y0212842D01*
X0001489Y0212613D01*
X0001418Y0212382D01*
X0001351Y0212150D01*
X0001291Y0211916D01*
X0001236Y0211681D01*
X0001186Y0211444D01*
X0001143Y0211207D01*
X0001105Y0210968D01*
X0001073Y0210728D01*
X0001047Y0210488D01*
X0001026Y0210247D01*
X0001012Y0210006D01*
X0001003Y0209765D01*
X0001000Y0209523D01*
X0001000Y0016924D01*
X0001003Y0016682D01*
X0001012Y0016441D01*
X0001026Y0016200D01*
X0001047Y0015959D01*
X0001073Y0015719D01*
X0001105Y0015479D01*
X0001143Y0015240D01*
X0001186Y0015003D01*
X0001236Y0014766D01*
X0001291Y0014531D01*
X0001351Y0014297D01*
X0001418Y0014065D01*
X0001489Y0013834D01*
X0001567Y0013605D01*
X0001650Y0013378D01*
X0001738Y0013153D01*
X0001832Y0012930D01*
X0001931Y0012710D01*
X0002036Y0012492D01*
X0002145Y0012277D01*
X0002260Y0012064D01*
X0002380Y0011854D01*
X0002505Y0011648D01*
X0002635Y0011444D01*
X0002770Y0011243D01*
X0002910Y0011046D01*
X0003054Y0010852D01*
X0003203Y0010662D01*
X0003357Y0010476D01*
X0003515Y0010293D01*
X0003677Y0010114D01*
X0003844Y0009939D01*
X0004015Y0009768D01*
X0004190Y0009601D01*
X0004369Y0009439D01*
X0004552Y0009281D01*
X0004738Y0009127D01*
X0004928Y0008978D01*
X0005122Y0008834D01*
X0005319Y0008694D01*
X0005520Y0008559D01*
X0005724Y0008429D01*
X0005930Y0008304D01*
X0006140Y0008184D01*
X0006353Y0008069D01*
X0006568Y0007960D01*
X0006786Y0007855D01*
X0007006Y0007756D01*
X0007229Y0007662D01*
X0007454Y0007574D01*
X0007681Y0007491D01*
X0007910Y0007413D01*
X0008141Y0007342D01*
X0008373Y0007275D01*
X0008607Y0007215D01*
X0008842Y0007160D01*
X0009079Y0007110D01*
X0009316Y0007067D01*
X0009555Y0007029D01*
X0009795Y0006997D01*
X0010035Y0006971D01*
X0010276Y0006950D01*
X0010517Y0006936D01*
X0010758Y0006927D01*
X0011000Y0006924D01*
X0007537Y0021335D02*
X0007539Y0021528D01*
X0007546Y0021721D01*
X0007558Y0021914D01*
X0007575Y0022107D01*
X0007596Y0022299D01*
X0007622Y0022490D01*
X0007653Y0022681D01*
X0007688Y0022871D01*
X0007728Y0023060D01*
X0007773Y0023248D01*
X0007822Y0023435D01*
X0007876Y0023621D01*
X0007934Y0023805D01*
X0007997Y0023988D01*
X0008065Y0024169D01*
X0008136Y0024348D01*
X0008213Y0024526D01*
X0008293Y0024702D01*
X0008378Y0024875D01*
X0008467Y0025047D01*
X0008560Y0025216D01*
X0008657Y0025383D01*
X0008759Y0025548D01*
X0008864Y0025710D01*
X0008973Y0025869D01*
X0009087Y0026026D01*
X0009204Y0026179D01*
X0009324Y0026330D01*
X0009449Y0026478D01*
X0009577Y0026623D01*
X0009708Y0026764D01*
X0009843Y0026903D01*
X0009982Y0027038D01*
X0010123Y0027169D01*
X0010268Y0027297D01*
X0010416Y0027422D01*
X0010567Y0027542D01*
X0010720Y0027659D01*
X0010877Y0027773D01*
X0011036Y0027882D01*
X0011198Y0027987D01*
X0011363Y0028089D01*
X0011530Y0028186D01*
X0011699Y0028279D01*
X0011871Y0028368D01*
X0012044Y0028453D01*
X0012220Y0028533D01*
X0012398Y0028610D01*
X0012577Y0028681D01*
X0012758Y0028749D01*
X0012941Y0028812D01*
X0013125Y0028870D01*
X0013311Y0028924D01*
X0013498Y0028973D01*
X0013686Y0029018D01*
X0013875Y0029058D01*
X0014065Y0029093D01*
X0014256Y0029124D01*
X0014447Y0029150D01*
X0014639Y0029171D01*
X0014832Y0029188D01*
X0015025Y0029200D01*
X0015218Y0029207D01*
X0015411Y0029209D01*
X0015604Y0029207D01*
X0015797Y0029200D01*
X0015990Y0029188D01*
X0016183Y0029171D01*
X0016375Y0029150D01*
X0016566Y0029124D01*
X0016757Y0029093D01*
X0016947Y0029058D01*
X0017136Y0029018D01*
X0017324Y0028973D01*
X0017511Y0028924D01*
X0017697Y0028870D01*
X0017881Y0028812D01*
X0018064Y0028749D01*
X0018245Y0028681D01*
X0018424Y0028610D01*
X0018602Y0028533D01*
X0018778Y0028453D01*
X0018951Y0028368D01*
X0019123Y0028279D01*
X0019292Y0028186D01*
X0019459Y0028089D01*
X0019624Y0027987D01*
X0019786Y0027882D01*
X0019945Y0027773D01*
X0020102Y0027659D01*
X0020255Y0027542D01*
X0020406Y0027422D01*
X0020554Y0027297D01*
X0020699Y0027169D01*
X0020840Y0027038D01*
X0020979Y0026903D01*
X0021114Y0026764D01*
X0021245Y0026623D01*
X0021373Y0026478D01*
X0021498Y0026330D01*
X0021618Y0026179D01*
X0021735Y0026026D01*
X0021849Y0025869D01*
X0021958Y0025710D01*
X0022063Y0025548D01*
X0022165Y0025383D01*
X0022262Y0025216D01*
X0022355Y0025047D01*
X0022444Y0024875D01*
X0022529Y0024702D01*
X0022609Y0024526D01*
X0022686Y0024348D01*
X0022757Y0024169D01*
X0022825Y0023988D01*
X0022888Y0023805D01*
X0022946Y0023621D01*
X0023000Y0023435D01*
X0023049Y0023248D01*
X0023094Y0023060D01*
X0023134Y0022871D01*
X0023169Y0022681D01*
X0023200Y0022490D01*
X0023226Y0022299D01*
X0023247Y0022107D01*
X0023264Y0021914D01*
X0023276Y0021721D01*
X0023283Y0021528D01*
X0023285Y0021335D01*
X0023283Y0021142D01*
X0023276Y0020949D01*
X0023264Y0020756D01*
X0023247Y0020563D01*
X0023226Y0020371D01*
X0023200Y0020180D01*
X0023169Y0019989D01*
X0023134Y0019799D01*
X0023094Y0019610D01*
X0023049Y0019422D01*
X0023000Y0019235D01*
X0022946Y0019049D01*
X0022888Y0018865D01*
X0022825Y0018682D01*
X0022757Y0018501D01*
X0022686Y0018322D01*
X0022609Y0018144D01*
X0022529Y0017968D01*
X0022444Y0017795D01*
X0022355Y0017623D01*
X0022262Y0017454D01*
X0022165Y0017287D01*
X0022063Y0017122D01*
X0021958Y0016960D01*
X0021849Y0016801D01*
X0021735Y0016644D01*
X0021618Y0016491D01*
X0021498Y0016340D01*
X0021373Y0016192D01*
X0021245Y0016047D01*
X0021114Y0015906D01*
X0020979Y0015767D01*
X0020840Y0015632D01*
X0020699Y0015501D01*
X0020554Y0015373D01*
X0020406Y0015248D01*
X0020255Y0015128D01*
X0020102Y0015011D01*
X0019945Y0014897D01*
X0019786Y0014788D01*
X0019624Y0014683D01*
X0019459Y0014581D01*
X0019292Y0014484D01*
X0019123Y0014391D01*
X0018951Y0014302D01*
X0018778Y0014217D01*
X0018602Y0014137D01*
X0018424Y0014060D01*
X0018245Y0013989D01*
X0018064Y0013921D01*
X0017881Y0013858D01*
X0017697Y0013800D01*
X0017511Y0013746D01*
X0017324Y0013697D01*
X0017136Y0013652D01*
X0016947Y0013612D01*
X0016757Y0013577D01*
X0016566Y0013546D01*
X0016375Y0013520D01*
X0016183Y0013499D01*
X0015990Y0013482D01*
X0015797Y0013470D01*
X0015604Y0013463D01*
X0015411Y0013461D01*
X0015218Y0013463D01*
X0015025Y0013470D01*
X0014832Y0013482D01*
X0014639Y0013499D01*
X0014447Y0013520D01*
X0014256Y0013546D01*
X0014065Y0013577D01*
X0013875Y0013612D01*
X0013686Y0013652D01*
X0013498Y0013697D01*
X0013311Y0013746D01*
X0013125Y0013800D01*
X0012941Y0013858D01*
X0012758Y0013921D01*
X0012577Y0013989D01*
X0012398Y0014060D01*
X0012220Y0014137D01*
X0012044Y0014217D01*
X0011871Y0014302D01*
X0011699Y0014391D01*
X0011530Y0014484D01*
X0011363Y0014581D01*
X0011198Y0014683D01*
X0011036Y0014788D01*
X0010877Y0014897D01*
X0010720Y0015011D01*
X0010567Y0015128D01*
X0010416Y0015248D01*
X0010268Y0015373D01*
X0010123Y0015501D01*
X0009982Y0015632D01*
X0009843Y0015767D01*
X0009708Y0015906D01*
X0009577Y0016047D01*
X0009449Y0016192D01*
X0009324Y0016340D01*
X0009204Y0016491D01*
X0009087Y0016644D01*
X0008973Y0016801D01*
X0008864Y0016960D01*
X0008759Y0017122D01*
X0008657Y0017287D01*
X0008560Y0017454D01*
X0008467Y0017623D01*
X0008378Y0017795D01*
X0008293Y0017968D01*
X0008213Y0018144D01*
X0008136Y0018322D01*
X0008065Y0018501D01*
X0007997Y0018682D01*
X0007934Y0018865D01*
X0007876Y0019049D01*
X0007822Y0019235D01*
X0007773Y0019422D01*
X0007728Y0019610D01*
X0007688Y0019799D01*
X0007653Y0019989D01*
X0007622Y0020180D01*
X0007596Y0020371D01*
X0007575Y0020563D01*
X0007558Y0020756D01*
X0007546Y0020949D01*
X0007539Y0021142D01*
X0007537Y0021335D01*
X0007537Y0205112D02*
X0007539Y0205305D01*
X0007546Y0205498D01*
X0007558Y0205691D01*
X0007575Y0205884D01*
X0007596Y0206076D01*
X0007622Y0206267D01*
X0007653Y0206458D01*
X0007688Y0206648D01*
X0007728Y0206837D01*
X0007773Y0207025D01*
X0007822Y0207212D01*
X0007876Y0207398D01*
X0007934Y0207582D01*
X0007997Y0207765D01*
X0008065Y0207946D01*
X0008136Y0208125D01*
X0008213Y0208303D01*
X0008293Y0208479D01*
X0008378Y0208652D01*
X0008467Y0208824D01*
X0008560Y0208993D01*
X0008657Y0209160D01*
X0008759Y0209325D01*
X0008864Y0209487D01*
X0008973Y0209646D01*
X0009087Y0209803D01*
X0009204Y0209956D01*
X0009324Y0210107D01*
X0009449Y0210255D01*
X0009577Y0210400D01*
X0009708Y0210541D01*
X0009843Y0210680D01*
X0009982Y0210815D01*
X0010123Y0210946D01*
X0010268Y0211074D01*
X0010416Y0211199D01*
X0010567Y0211319D01*
X0010720Y0211436D01*
X0010877Y0211550D01*
X0011036Y0211659D01*
X0011198Y0211764D01*
X0011363Y0211866D01*
X0011530Y0211963D01*
X0011699Y0212056D01*
X0011871Y0212145D01*
X0012044Y0212230D01*
X0012220Y0212310D01*
X0012398Y0212387D01*
X0012577Y0212458D01*
X0012758Y0212526D01*
X0012941Y0212589D01*
X0013125Y0212647D01*
X0013311Y0212701D01*
X0013498Y0212750D01*
X0013686Y0212795D01*
X0013875Y0212835D01*
X0014065Y0212870D01*
X0014256Y0212901D01*
X0014447Y0212927D01*
X0014639Y0212948D01*
X0014832Y0212965D01*
X0015025Y0212977D01*
X0015218Y0212984D01*
X0015411Y0212986D01*
X0015604Y0212984D01*
X0015797Y0212977D01*
X0015990Y0212965D01*
X0016183Y0212948D01*
X0016375Y0212927D01*
X0016566Y0212901D01*
X0016757Y0212870D01*
X0016947Y0212835D01*
X0017136Y0212795D01*
X0017324Y0212750D01*
X0017511Y0212701D01*
X0017697Y0212647D01*
X0017881Y0212589D01*
X0018064Y0212526D01*
X0018245Y0212458D01*
X0018424Y0212387D01*
X0018602Y0212310D01*
X0018778Y0212230D01*
X0018951Y0212145D01*
X0019123Y0212056D01*
X0019292Y0211963D01*
X0019459Y0211866D01*
X0019624Y0211764D01*
X0019786Y0211659D01*
X0019945Y0211550D01*
X0020102Y0211436D01*
X0020255Y0211319D01*
X0020406Y0211199D01*
X0020554Y0211074D01*
X0020699Y0210946D01*
X0020840Y0210815D01*
X0020979Y0210680D01*
X0021114Y0210541D01*
X0021245Y0210400D01*
X0021373Y0210255D01*
X0021498Y0210107D01*
X0021618Y0209956D01*
X0021735Y0209803D01*
X0021849Y0209646D01*
X0021958Y0209487D01*
X0022063Y0209325D01*
X0022165Y0209160D01*
X0022262Y0208993D01*
X0022355Y0208824D01*
X0022444Y0208652D01*
X0022529Y0208479D01*
X0022609Y0208303D01*
X0022686Y0208125D01*
X0022757Y0207946D01*
X0022825Y0207765D01*
X0022888Y0207582D01*
X0022946Y0207398D01*
X0023000Y0207212D01*
X0023049Y0207025D01*
X0023094Y0206837D01*
X0023134Y0206648D01*
X0023169Y0206458D01*
X0023200Y0206267D01*
X0023226Y0206076D01*
X0023247Y0205884D01*
X0023264Y0205691D01*
X0023276Y0205498D01*
X0023283Y0205305D01*
X0023285Y0205112D01*
X0023283Y0204919D01*
X0023276Y0204726D01*
X0023264Y0204533D01*
X0023247Y0204340D01*
X0023226Y0204148D01*
X0023200Y0203957D01*
X0023169Y0203766D01*
X0023134Y0203576D01*
X0023094Y0203387D01*
X0023049Y0203199D01*
X0023000Y0203012D01*
X0022946Y0202826D01*
X0022888Y0202642D01*
X0022825Y0202459D01*
X0022757Y0202278D01*
X0022686Y0202099D01*
X0022609Y0201921D01*
X0022529Y0201745D01*
X0022444Y0201572D01*
X0022355Y0201400D01*
X0022262Y0201231D01*
X0022165Y0201064D01*
X0022063Y0200899D01*
X0021958Y0200737D01*
X0021849Y0200578D01*
X0021735Y0200421D01*
X0021618Y0200268D01*
X0021498Y0200117D01*
X0021373Y0199969D01*
X0021245Y0199824D01*
X0021114Y0199683D01*
X0020979Y0199544D01*
X0020840Y0199409D01*
X0020699Y0199278D01*
X0020554Y0199150D01*
X0020406Y0199025D01*
X0020255Y0198905D01*
X0020102Y0198788D01*
X0019945Y0198674D01*
X0019786Y0198565D01*
X0019624Y0198460D01*
X0019459Y0198358D01*
X0019292Y0198261D01*
X0019123Y0198168D01*
X0018951Y0198079D01*
X0018778Y0197994D01*
X0018602Y0197914D01*
X0018424Y0197837D01*
X0018245Y0197766D01*
X0018064Y0197698D01*
X0017881Y0197635D01*
X0017697Y0197577D01*
X0017511Y0197523D01*
X0017324Y0197474D01*
X0017136Y0197429D01*
X0016947Y0197389D01*
X0016757Y0197354D01*
X0016566Y0197323D01*
X0016375Y0197297D01*
X0016183Y0197276D01*
X0015990Y0197259D01*
X0015797Y0197247D01*
X0015604Y0197240D01*
X0015411Y0197238D01*
X0015218Y0197240D01*
X0015025Y0197247D01*
X0014832Y0197259D01*
X0014639Y0197276D01*
X0014447Y0197297D01*
X0014256Y0197323D01*
X0014065Y0197354D01*
X0013875Y0197389D01*
X0013686Y0197429D01*
X0013498Y0197474D01*
X0013311Y0197523D01*
X0013125Y0197577D01*
X0012941Y0197635D01*
X0012758Y0197698D01*
X0012577Y0197766D01*
X0012398Y0197837D01*
X0012220Y0197914D01*
X0012044Y0197994D01*
X0011871Y0198079D01*
X0011699Y0198168D01*
X0011530Y0198261D01*
X0011363Y0198358D01*
X0011198Y0198460D01*
X0011036Y0198565D01*
X0010877Y0198674D01*
X0010720Y0198788D01*
X0010567Y0198905D01*
X0010416Y0199025D01*
X0010268Y0199150D01*
X0010123Y0199278D01*
X0009982Y0199409D01*
X0009843Y0199544D01*
X0009708Y0199683D01*
X0009577Y0199824D01*
X0009449Y0199969D01*
X0009324Y0200117D01*
X0009204Y0200268D01*
X0009087Y0200421D01*
X0008973Y0200578D01*
X0008864Y0200737D01*
X0008759Y0200899D01*
X0008657Y0201064D01*
X0008560Y0201231D01*
X0008467Y0201400D01*
X0008378Y0201572D01*
X0008293Y0201745D01*
X0008213Y0201921D01*
X0008136Y0202099D01*
X0008065Y0202278D01*
X0007997Y0202459D01*
X0007934Y0202642D01*
X0007876Y0202826D01*
X0007822Y0203012D01*
X0007773Y0203199D01*
X0007728Y0203387D01*
X0007688Y0203576D01*
X0007653Y0203766D01*
X0007622Y0203957D01*
X0007596Y0204148D01*
X0007575Y0204340D01*
X0007558Y0204533D01*
X0007546Y0204726D01*
X0007539Y0204919D01*
X0007537Y0205112D01*
X0348794Y0205112D02*
X0348796Y0205305D01*
X0348803Y0205498D01*
X0348815Y0205691D01*
X0348832Y0205884D01*
X0348853Y0206076D01*
X0348879Y0206267D01*
X0348910Y0206458D01*
X0348945Y0206648D01*
X0348985Y0206837D01*
X0349030Y0207025D01*
X0349079Y0207212D01*
X0349133Y0207398D01*
X0349191Y0207582D01*
X0349254Y0207765D01*
X0349322Y0207946D01*
X0349393Y0208125D01*
X0349470Y0208303D01*
X0349550Y0208479D01*
X0349635Y0208652D01*
X0349724Y0208824D01*
X0349817Y0208993D01*
X0349914Y0209160D01*
X0350016Y0209325D01*
X0350121Y0209487D01*
X0350230Y0209646D01*
X0350344Y0209803D01*
X0350461Y0209956D01*
X0350581Y0210107D01*
X0350706Y0210255D01*
X0350834Y0210400D01*
X0350965Y0210541D01*
X0351100Y0210680D01*
X0351239Y0210815D01*
X0351380Y0210946D01*
X0351525Y0211074D01*
X0351673Y0211199D01*
X0351824Y0211319D01*
X0351977Y0211436D01*
X0352134Y0211550D01*
X0352293Y0211659D01*
X0352455Y0211764D01*
X0352620Y0211866D01*
X0352787Y0211963D01*
X0352956Y0212056D01*
X0353128Y0212145D01*
X0353301Y0212230D01*
X0353477Y0212310D01*
X0353655Y0212387D01*
X0353834Y0212458D01*
X0354015Y0212526D01*
X0354198Y0212589D01*
X0354382Y0212647D01*
X0354568Y0212701D01*
X0354755Y0212750D01*
X0354943Y0212795D01*
X0355132Y0212835D01*
X0355322Y0212870D01*
X0355513Y0212901D01*
X0355704Y0212927D01*
X0355896Y0212948D01*
X0356089Y0212965D01*
X0356282Y0212977D01*
X0356475Y0212984D01*
X0356668Y0212986D01*
X0356861Y0212984D01*
X0357054Y0212977D01*
X0357247Y0212965D01*
X0357440Y0212948D01*
X0357632Y0212927D01*
X0357823Y0212901D01*
X0358014Y0212870D01*
X0358204Y0212835D01*
X0358393Y0212795D01*
X0358581Y0212750D01*
X0358768Y0212701D01*
X0358954Y0212647D01*
X0359138Y0212589D01*
X0359321Y0212526D01*
X0359502Y0212458D01*
X0359681Y0212387D01*
X0359859Y0212310D01*
X0360035Y0212230D01*
X0360208Y0212145D01*
X0360380Y0212056D01*
X0360549Y0211963D01*
X0360716Y0211866D01*
X0360881Y0211764D01*
X0361043Y0211659D01*
X0361202Y0211550D01*
X0361359Y0211436D01*
X0361512Y0211319D01*
X0361663Y0211199D01*
X0361811Y0211074D01*
X0361956Y0210946D01*
X0362097Y0210815D01*
X0362236Y0210680D01*
X0362371Y0210541D01*
X0362502Y0210400D01*
X0362630Y0210255D01*
X0362755Y0210107D01*
X0362875Y0209956D01*
X0362992Y0209803D01*
X0363106Y0209646D01*
X0363215Y0209487D01*
X0363320Y0209325D01*
X0363422Y0209160D01*
X0363519Y0208993D01*
X0363612Y0208824D01*
X0363701Y0208652D01*
X0363786Y0208479D01*
X0363866Y0208303D01*
X0363943Y0208125D01*
X0364014Y0207946D01*
X0364082Y0207765D01*
X0364145Y0207582D01*
X0364203Y0207398D01*
X0364257Y0207212D01*
X0364306Y0207025D01*
X0364351Y0206837D01*
X0364391Y0206648D01*
X0364426Y0206458D01*
X0364457Y0206267D01*
X0364483Y0206076D01*
X0364504Y0205884D01*
X0364521Y0205691D01*
X0364533Y0205498D01*
X0364540Y0205305D01*
X0364542Y0205112D01*
X0364540Y0204919D01*
X0364533Y0204726D01*
X0364521Y0204533D01*
X0364504Y0204340D01*
X0364483Y0204148D01*
X0364457Y0203957D01*
X0364426Y0203766D01*
X0364391Y0203576D01*
X0364351Y0203387D01*
X0364306Y0203199D01*
X0364257Y0203012D01*
X0364203Y0202826D01*
X0364145Y0202642D01*
X0364082Y0202459D01*
X0364014Y0202278D01*
X0363943Y0202099D01*
X0363866Y0201921D01*
X0363786Y0201745D01*
X0363701Y0201572D01*
X0363612Y0201400D01*
X0363519Y0201231D01*
X0363422Y0201064D01*
X0363320Y0200899D01*
X0363215Y0200737D01*
X0363106Y0200578D01*
X0362992Y0200421D01*
X0362875Y0200268D01*
X0362755Y0200117D01*
X0362630Y0199969D01*
X0362502Y0199824D01*
X0362371Y0199683D01*
X0362236Y0199544D01*
X0362097Y0199409D01*
X0361956Y0199278D01*
X0361811Y0199150D01*
X0361663Y0199025D01*
X0361512Y0198905D01*
X0361359Y0198788D01*
X0361202Y0198674D01*
X0361043Y0198565D01*
X0360881Y0198460D01*
X0360716Y0198358D01*
X0360549Y0198261D01*
X0360380Y0198168D01*
X0360208Y0198079D01*
X0360035Y0197994D01*
X0359859Y0197914D01*
X0359681Y0197837D01*
X0359502Y0197766D01*
X0359321Y0197698D01*
X0359138Y0197635D01*
X0358954Y0197577D01*
X0358768Y0197523D01*
X0358581Y0197474D01*
X0358393Y0197429D01*
X0358204Y0197389D01*
X0358014Y0197354D01*
X0357823Y0197323D01*
X0357632Y0197297D01*
X0357440Y0197276D01*
X0357247Y0197259D01*
X0357054Y0197247D01*
X0356861Y0197240D01*
X0356668Y0197238D01*
X0356475Y0197240D01*
X0356282Y0197247D01*
X0356089Y0197259D01*
X0355896Y0197276D01*
X0355704Y0197297D01*
X0355513Y0197323D01*
X0355322Y0197354D01*
X0355132Y0197389D01*
X0354943Y0197429D01*
X0354755Y0197474D01*
X0354568Y0197523D01*
X0354382Y0197577D01*
X0354198Y0197635D01*
X0354015Y0197698D01*
X0353834Y0197766D01*
X0353655Y0197837D01*
X0353477Y0197914D01*
X0353301Y0197994D01*
X0353128Y0198079D01*
X0352956Y0198168D01*
X0352787Y0198261D01*
X0352620Y0198358D01*
X0352455Y0198460D01*
X0352293Y0198565D01*
X0352134Y0198674D01*
X0351977Y0198788D01*
X0351824Y0198905D01*
X0351673Y0199025D01*
X0351525Y0199150D01*
X0351380Y0199278D01*
X0351239Y0199409D01*
X0351100Y0199544D01*
X0350965Y0199683D01*
X0350834Y0199824D01*
X0350706Y0199969D01*
X0350581Y0200117D01*
X0350461Y0200268D01*
X0350344Y0200421D01*
X0350230Y0200578D01*
X0350121Y0200737D01*
X0350016Y0200899D01*
X0349914Y0201064D01*
X0349817Y0201231D01*
X0349724Y0201400D01*
X0349635Y0201572D01*
X0349550Y0201745D01*
X0349470Y0201921D01*
X0349393Y0202099D01*
X0349322Y0202278D01*
X0349254Y0202459D01*
X0349191Y0202642D01*
X0349133Y0202826D01*
X0349079Y0203012D01*
X0349030Y0203199D01*
X0348985Y0203387D01*
X0348945Y0203576D01*
X0348910Y0203766D01*
X0348879Y0203957D01*
X0348853Y0204148D01*
X0348832Y0204340D01*
X0348815Y0204533D01*
X0348803Y0204726D01*
X0348796Y0204919D01*
X0348794Y0205112D01*
X0348794Y0021335D02*
X0348796Y0021528D01*
X0348803Y0021721D01*
X0348815Y0021914D01*
X0348832Y0022107D01*
X0348853Y0022299D01*
X0348879Y0022490D01*
X0348910Y0022681D01*
X0348945Y0022871D01*
X0348985Y0023060D01*
X0349030Y0023248D01*
X0349079Y0023435D01*
X0349133Y0023621D01*
X0349191Y0023805D01*
X0349254Y0023988D01*
X0349322Y0024169D01*
X0349393Y0024348D01*
X0349470Y0024526D01*
X0349550Y0024702D01*
X0349635Y0024875D01*
X0349724Y0025047D01*
X0349817Y0025216D01*
X0349914Y0025383D01*
X0350016Y0025548D01*
X0350121Y0025710D01*
X0350230Y0025869D01*
X0350344Y0026026D01*
X0350461Y0026179D01*
X0350581Y0026330D01*
X0350706Y0026478D01*
X0350834Y0026623D01*
X0350965Y0026764D01*
X0351100Y0026903D01*
X0351239Y0027038D01*
X0351380Y0027169D01*
X0351525Y0027297D01*
X0351673Y0027422D01*
X0351824Y0027542D01*
X0351977Y0027659D01*
X0352134Y0027773D01*
X0352293Y0027882D01*
X0352455Y0027987D01*
X0352620Y0028089D01*
X0352787Y0028186D01*
X0352956Y0028279D01*
X0353128Y0028368D01*
X0353301Y0028453D01*
X0353477Y0028533D01*
X0353655Y0028610D01*
X0353834Y0028681D01*
X0354015Y0028749D01*
X0354198Y0028812D01*
X0354382Y0028870D01*
X0354568Y0028924D01*
X0354755Y0028973D01*
X0354943Y0029018D01*
X0355132Y0029058D01*
X0355322Y0029093D01*
X0355513Y0029124D01*
X0355704Y0029150D01*
X0355896Y0029171D01*
X0356089Y0029188D01*
X0356282Y0029200D01*
X0356475Y0029207D01*
X0356668Y0029209D01*
X0356861Y0029207D01*
X0357054Y0029200D01*
X0357247Y0029188D01*
X0357440Y0029171D01*
X0357632Y0029150D01*
X0357823Y0029124D01*
X0358014Y0029093D01*
X0358204Y0029058D01*
X0358393Y0029018D01*
X0358581Y0028973D01*
X0358768Y0028924D01*
X0358954Y0028870D01*
X0359138Y0028812D01*
X0359321Y0028749D01*
X0359502Y0028681D01*
X0359681Y0028610D01*
X0359859Y0028533D01*
X0360035Y0028453D01*
X0360208Y0028368D01*
X0360380Y0028279D01*
X0360549Y0028186D01*
X0360716Y0028089D01*
X0360881Y0027987D01*
X0361043Y0027882D01*
X0361202Y0027773D01*
X0361359Y0027659D01*
X0361512Y0027542D01*
X0361663Y0027422D01*
X0361811Y0027297D01*
X0361956Y0027169D01*
X0362097Y0027038D01*
X0362236Y0026903D01*
X0362371Y0026764D01*
X0362502Y0026623D01*
X0362630Y0026478D01*
X0362755Y0026330D01*
X0362875Y0026179D01*
X0362992Y0026026D01*
X0363106Y0025869D01*
X0363215Y0025710D01*
X0363320Y0025548D01*
X0363422Y0025383D01*
X0363519Y0025216D01*
X0363612Y0025047D01*
X0363701Y0024875D01*
X0363786Y0024702D01*
X0363866Y0024526D01*
X0363943Y0024348D01*
X0364014Y0024169D01*
X0364082Y0023988D01*
X0364145Y0023805D01*
X0364203Y0023621D01*
X0364257Y0023435D01*
X0364306Y0023248D01*
X0364351Y0023060D01*
X0364391Y0022871D01*
X0364426Y0022681D01*
X0364457Y0022490D01*
X0364483Y0022299D01*
X0364504Y0022107D01*
X0364521Y0021914D01*
X0364533Y0021721D01*
X0364540Y0021528D01*
X0364542Y0021335D01*
X0364540Y0021142D01*
X0364533Y0020949D01*
X0364521Y0020756D01*
X0364504Y0020563D01*
X0364483Y0020371D01*
X0364457Y0020180D01*
X0364426Y0019989D01*
X0364391Y0019799D01*
X0364351Y0019610D01*
X0364306Y0019422D01*
X0364257Y0019235D01*
X0364203Y0019049D01*
X0364145Y0018865D01*
X0364082Y0018682D01*
X0364014Y0018501D01*
X0363943Y0018322D01*
X0363866Y0018144D01*
X0363786Y0017968D01*
X0363701Y0017795D01*
X0363612Y0017623D01*
X0363519Y0017454D01*
X0363422Y0017287D01*
X0363320Y0017122D01*
X0363215Y0016960D01*
X0363106Y0016801D01*
X0362992Y0016644D01*
X0362875Y0016491D01*
X0362755Y0016340D01*
X0362630Y0016192D01*
X0362502Y0016047D01*
X0362371Y0015906D01*
X0362236Y0015767D01*
X0362097Y0015632D01*
X0361956Y0015501D01*
X0361811Y0015373D01*
X0361663Y0015248D01*
X0361512Y0015128D01*
X0361359Y0015011D01*
X0361202Y0014897D01*
X0361043Y0014788D01*
X0360881Y0014683D01*
X0360716Y0014581D01*
X0360549Y0014484D01*
X0360380Y0014391D01*
X0360208Y0014302D01*
X0360035Y0014217D01*
X0359859Y0014137D01*
X0359681Y0014060D01*
X0359502Y0013989D01*
X0359321Y0013921D01*
X0359138Y0013858D01*
X0358954Y0013800D01*
X0358768Y0013746D01*
X0358581Y0013697D01*
X0358393Y0013652D01*
X0358204Y0013612D01*
X0358014Y0013577D01*
X0357823Y0013546D01*
X0357632Y0013520D01*
X0357440Y0013499D01*
X0357247Y0013482D01*
X0357054Y0013470D01*
X0356861Y0013463D01*
X0356668Y0013461D01*
X0356475Y0013463D01*
X0356282Y0013470D01*
X0356089Y0013482D01*
X0355896Y0013499D01*
X0355704Y0013520D01*
X0355513Y0013546D01*
X0355322Y0013577D01*
X0355132Y0013612D01*
X0354943Y0013652D01*
X0354755Y0013697D01*
X0354568Y0013746D01*
X0354382Y0013800D01*
X0354198Y0013858D01*
X0354015Y0013921D01*
X0353834Y0013989D01*
X0353655Y0014060D01*
X0353477Y0014137D01*
X0353301Y0014217D01*
X0353128Y0014302D01*
X0352956Y0014391D01*
X0352787Y0014484D01*
X0352620Y0014581D01*
X0352455Y0014683D01*
X0352293Y0014788D01*
X0352134Y0014897D01*
X0351977Y0015011D01*
X0351824Y0015128D01*
X0351673Y0015248D01*
X0351525Y0015373D01*
X0351380Y0015501D01*
X0351239Y0015632D01*
X0351100Y0015767D01*
X0350965Y0015906D01*
X0350834Y0016047D01*
X0350706Y0016192D01*
X0350581Y0016340D01*
X0350461Y0016491D01*
X0350344Y0016644D01*
X0350230Y0016801D01*
X0350121Y0016960D01*
X0350016Y0017122D01*
X0349914Y0017287D01*
X0349817Y0017454D01*
X0349724Y0017623D01*
X0349635Y0017795D01*
X0349550Y0017968D01*
X0349470Y0018144D01*
X0349393Y0018322D01*
X0349322Y0018501D01*
X0349254Y0018682D01*
X0349191Y0018865D01*
X0349133Y0019049D01*
X0349079Y0019235D01*
X0349030Y0019422D01*
X0348985Y0019610D01*
X0348945Y0019799D01*
X0348910Y0019989D01*
X0348879Y0020180D01*
X0348853Y0020371D01*
X0348832Y0020563D01*
X0348815Y0020756D01*
X0348803Y0020949D01*
X0348796Y0021142D01*
X0348794Y0021335D01*
M02*
