%
M48
M72
T01C0.0276
T02C0.0320
T03C0.0354
T04C0.0400
T05C0.0472
T06C0.0940
T07C0.1360
T08C0.1575
%
T01
X32361Y15755
T02
X13786Y16058
X12786Y16058
X11786Y16058
X10786Y16058
X10786Y13058
X11786Y13058
X12786Y13058
X13786Y13058
X5637Y13058
X4637Y13058
X3637Y13058
X2637Y13058
X2637Y16058
X3637Y16058
X4637Y16058
X5637Y16058
T03
X8428Y17688
X8428Y20688
X14668Y20688
X16554Y20814
X16554Y17814
X14668Y17688
X16487Y15759
X16487Y12759
T04
X20361Y12755
X21361Y12755
X22361Y12755
X23361Y12755
X24361Y12755
X25361Y12755
X26361Y12755
X27361Y12755
X28361Y12755
X29361Y12755
X30361Y12755
X31361Y12755
X32361Y12755
X33361Y12755
X34361Y12755
X34361Y21755
X33361Y21755
X32361Y21755
X31361Y21755
X30361Y21755
X29361Y21755
X28361Y21755
X27361Y21755
X26361Y21755
X25361Y21755
X24361Y21755
X23361Y21755
X22361Y21755
X21361Y21755
X20361Y21755
T05
X13019Y20660
X11641Y20660
X6566Y20660
X5188Y20660
T06
X34020Y4510
T07
X30740Y10810
X8990Y4510
T08
X2542Y2936
X2542Y21834
X37188Y21834
X37188Y2936
M30
