G75*
%MOIN*%
%OFA0B0*%
%FSLAX25Y25*%
%IPPOS*%
%LPD*%
%AMOC8*
5,1,8,0,0,1.08239X$1,22.5*
%
%ADD10C,0.16548*%
%ADD11C,0.07400*%
%ADD12R,0.08800X0.08800*%
%ADD13C,0.08800*%
%ADD14C,0.06800*%
%ADD15C,0.08200*%
%ADD16R,0.29700X0.25800*%
%ADD17C,0.14400*%
%ADD18C,0.10200*%
%ADD19C,0.05156*%
D10*
X0025422Y0029359D03*
X0025422Y0218335D03*
X0371879Y0218335D03*
X0371879Y0029359D03*
D11*
X0137863Y0130580D03*
X0127863Y0130580D03*
X0117863Y0130580D03*
X0107863Y0130580D03*
X0107863Y0160580D03*
X0117863Y0160580D03*
X0127863Y0160580D03*
X0137863Y0160580D03*
X0056367Y0160580D03*
X0046367Y0160580D03*
X0036367Y0160580D03*
X0026367Y0160580D03*
X0026367Y0130580D03*
X0036367Y0130580D03*
X0046367Y0130580D03*
X0056367Y0130580D03*
D12*
X0065658Y0206603D03*
X0130186Y0206603D03*
D13*
X0116406Y0206603D03*
X0051879Y0206603D03*
D14*
X0203611Y0214548D02*
X0203611Y0220548D01*
X0213611Y0220548D02*
X0213611Y0214548D01*
X0223611Y0214548D02*
X0223611Y0220548D01*
X0233611Y0220548D02*
X0233611Y0214548D01*
X0243611Y0214548D02*
X0243611Y0220548D01*
X0253611Y0220548D02*
X0253611Y0214548D01*
X0263611Y0214548D02*
X0263611Y0220548D01*
X0273611Y0220548D02*
X0273611Y0214548D01*
X0283611Y0214548D02*
X0283611Y0220548D01*
X0293611Y0220548D02*
X0293611Y0214548D01*
X0303611Y0214548D02*
X0303611Y0220548D01*
X0313611Y0220548D02*
X0313611Y0214548D01*
X0323611Y0214548D02*
X0323611Y0220548D01*
X0333611Y0220548D02*
X0333611Y0214548D01*
X0343611Y0214548D02*
X0343611Y0220548D01*
X0343611Y0130548D02*
X0343611Y0124548D01*
X0333611Y0124548D02*
X0333611Y0130548D01*
X0323611Y0130548D02*
X0323611Y0124548D01*
X0313611Y0124548D02*
X0313611Y0130548D01*
X0303611Y0130548D02*
X0303611Y0124548D01*
X0293611Y0124548D02*
X0293611Y0130548D01*
X0283611Y0130548D02*
X0283611Y0124548D01*
X0273611Y0124548D02*
X0273611Y0130548D01*
X0263611Y0130548D02*
X0263611Y0124548D01*
X0253611Y0124548D02*
X0253611Y0130548D01*
X0243611Y0130548D02*
X0243611Y0124548D01*
X0233611Y0124548D02*
X0233611Y0130548D01*
X0223611Y0130548D02*
X0223611Y0124548D01*
X0213611Y0124548D02*
X0213611Y0130548D01*
X0203611Y0130548D02*
X0203611Y0124548D01*
D15*
X0164871Y0127587D03*
X0164871Y0157587D03*
X0146682Y0176879D03*
X0165540Y0178139D03*
X0165540Y0208139D03*
X0146682Y0206879D03*
X0084280Y0206879D03*
X0084280Y0176879D03*
D16*
X0043800Y0076603D03*
X0353500Y0076603D03*
D17*
X0307400Y0108103D03*
X0089900Y0045103D03*
D18*
X0340200Y0045103D03*
D19*
X0323611Y0157548D03*
M02*
