G75*
%MOIN*%
%OFA0B0*%
%FSLAX25Y25*%
%IPPOS*%
%LPD*%
%AMOC8*
5,1,8,0,0,1.08239X$1,22.5*
%
%ADD10C,0.02402*%
%ADD11C,0.00600*%
%ADD12C,0.00400*%
%ADD13C,0.00300*%
%ADD14C,0.00500*%
%ADD15C,0.01600*%
%ADD16C,0.00800*%
%ADD17R,0.02000X0.02000*%
D10*
X0193611Y0117548D02*
X0353611Y0117548D01*
X0353611Y0147548D01*
X0333611Y0147548D01*
X0333611Y0197548D01*
X0283611Y0197548D01*
X0283611Y0147548D01*
X0333611Y0147548D01*
X0353611Y0147548D02*
X0353611Y0197548D01*
X0333611Y0197548D01*
X0353611Y0197548D02*
X0353611Y0227548D01*
X0193611Y0227548D01*
X0193611Y0117548D01*
X0143611Y0162548D02*
X0143613Y0162647D01*
X0143619Y0162747D01*
X0143629Y0162846D01*
X0143643Y0162944D01*
X0143660Y0163042D01*
X0143682Y0163139D01*
X0143707Y0163235D01*
X0143736Y0163330D01*
X0143769Y0163424D01*
X0143806Y0163516D01*
X0143846Y0163607D01*
X0143890Y0163696D01*
X0143938Y0163784D01*
X0143989Y0163869D01*
X0144043Y0163952D01*
X0144100Y0164034D01*
X0144161Y0164112D01*
X0144225Y0164189D01*
X0144291Y0164262D01*
X0144361Y0164333D01*
X0144433Y0164401D01*
X0144508Y0164467D01*
X0144586Y0164529D01*
X0144666Y0164588D01*
X0144748Y0164644D01*
X0144832Y0164696D01*
X0144919Y0164745D01*
X0145007Y0164791D01*
X0145097Y0164833D01*
X0145189Y0164872D01*
X0145282Y0164907D01*
X0145376Y0164938D01*
X0145472Y0164965D01*
X0145569Y0164988D01*
X0145666Y0165008D01*
X0145764Y0165024D01*
X0145863Y0165036D01*
X0145962Y0165044D01*
X0146061Y0165048D01*
X0146161Y0165048D01*
X0146260Y0165044D01*
X0146359Y0165036D01*
X0146458Y0165024D01*
X0146556Y0165008D01*
X0146653Y0164988D01*
X0146750Y0164965D01*
X0146846Y0164938D01*
X0146940Y0164907D01*
X0147033Y0164872D01*
X0147125Y0164833D01*
X0147215Y0164791D01*
X0147303Y0164745D01*
X0147390Y0164696D01*
X0147474Y0164644D01*
X0147556Y0164588D01*
X0147636Y0164529D01*
X0147714Y0164467D01*
X0147789Y0164401D01*
X0147861Y0164333D01*
X0147931Y0164262D01*
X0147997Y0164189D01*
X0148061Y0164112D01*
X0148122Y0164034D01*
X0148179Y0163952D01*
X0148233Y0163869D01*
X0148284Y0163784D01*
X0148332Y0163696D01*
X0148376Y0163607D01*
X0148416Y0163516D01*
X0148453Y0163424D01*
X0148486Y0163330D01*
X0148515Y0163235D01*
X0148540Y0163139D01*
X0148562Y0163042D01*
X0148579Y0162944D01*
X0148593Y0162846D01*
X0148603Y0162747D01*
X0148609Y0162647D01*
X0148611Y0162548D01*
X0148609Y0162449D01*
X0148603Y0162349D01*
X0148593Y0162250D01*
X0148579Y0162152D01*
X0148562Y0162054D01*
X0148540Y0161957D01*
X0148515Y0161861D01*
X0148486Y0161766D01*
X0148453Y0161672D01*
X0148416Y0161580D01*
X0148376Y0161489D01*
X0148332Y0161400D01*
X0148284Y0161312D01*
X0148233Y0161227D01*
X0148179Y0161144D01*
X0148122Y0161062D01*
X0148061Y0160984D01*
X0147997Y0160907D01*
X0147931Y0160834D01*
X0147861Y0160763D01*
X0147789Y0160695D01*
X0147714Y0160629D01*
X0147636Y0160567D01*
X0147556Y0160508D01*
X0147474Y0160452D01*
X0147390Y0160400D01*
X0147303Y0160351D01*
X0147215Y0160305D01*
X0147125Y0160263D01*
X0147033Y0160224D01*
X0146940Y0160189D01*
X0146846Y0160158D01*
X0146750Y0160131D01*
X0146653Y0160108D01*
X0146556Y0160088D01*
X0146458Y0160072D01*
X0146359Y0160060D01*
X0146260Y0160052D01*
X0146161Y0160048D01*
X0146061Y0160048D01*
X0145962Y0160052D01*
X0145863Y0160060D01*
X0145764Y0160072D01*
X0145666Y0160088D01*
X0145569Y0160108D01*
X0145472Y0160131D01*
X0145376Y0160158D01*
X0145282Y0160189D01*
X0145189Y0160224D01*
X0145097Y0160263D01*
X0145007Y0160305D01*
X0144919Y0160351D01*
X0144832Y0160400D01*
X0144748Y0160452D01*
X0144666Y0160508D01*
X0144586Y0160567D01*
X0144508Y0160629D01*
X0144433Y0160695D01*
X0144361Y0160763D01*
X0144291Y0160834D01*
X0144225Y0160907D01*
X0144161Y0160984D01*
X0144100Y0161062D01*
X0144043Y0161144D01*
X0143989Y0161227D01*
X0143938Y0161312D01*
X0143890Y0161400D01*
X0143846Y0161489D01*
X0143806Y0161580D01*
X0143769Y0161672D01*
X0143736Y0161766D01*
X0143707Y0161861D01*
X0143682Y0161957D01*
X0143660Y0162054D01*
X0143643Y0162152D01*
X0143629Y0162250D01*
X0143619Y0162349D01*
X0143613Y0162449D01*
X0143611Y0162548D01*
X0061111Y0162548D02*
X0061113Y0162647D01*
X0061119Y0162747D01*
X0061129Y0162846D01*
X0061143Y0162944D01*
X0061160Y0163042D01*
X0061182Y0163139D01*
X0061207Y0163235D01*
X0061236Y0163330D01*
X0061269Y0163424D01*
X0061306Y0163516D01*
X0061346Y0163607D01*
X0061390Y0163696D01*
X0061438Y0163784D01*
X0061489Y0163869D01*
X0061543Y0163952D01*
X0061600Y0164034D01*
X0061661Y0164112D01*
X0061725Y0164189D01*
X0061791Y0164262D01*
X0061861Y0164333D01*
X0061933Y0164401D01*
X0062008Y0164467D01*
X0062086Y0164529D01*
X0062166Y0164588D01*
X0062248Y0164644D01*
X0062332Y0164696D01*
X0062419Y0164745D01*
X0062507Y0164791D01*
X0062597Y0164833D01*
X0062689Y0164872D01*
X0062782Y0164907D01*
X0062876Y0164938D01*
X0062972Y0164965D01*
X0063069Y0164988D01*
X0063166Y0165008D01*
X0063264Y0165024D01*
X0063363Y0165036D01*
X0063462Y0165044D01*
X0063561Y0165048D01*
X0063661Y0165048D01*
X0063760Y0165044D01*
X0063859Y0165036D01*
X0063958Y0165024D01*
X0064056Y0165008D01*
X0064153Y0164988D01*
X0064250Y0164965D01*
X0064346Y0164938D01*
X0064440Y0164907D01*
X0064533Y0164872D01*
X0064625Y0164833D01*
X0064715Y0164791D01*
X0064803Y0164745D01*
X0064890Y0164696D01*
X0064974Y0164644D01*
X0065056Y0164588D01*
X0065136Y0164529D01*
X0065214Y0164467D01*
X0065289Y0164401D01*
X0065361Y0164333D01*
X0065431Y0164262D01*
X0065497Y0164189D01*
X0065561Y0164112D01*
X0065622Y0164034D01*
X0065679Y0163952D01*
X0065733Y0163869D01*
X0065784Y0163784D01*
X0065832Y0163696D01*
X0065876Y0163607D01*
X0065916Y0163516D01*
X0065953Y0163424D01*
X0065986Y0163330D01*
X0066015Y0163235D01*
X0066040Y0163139D01*
X0066062Y0163042D01*
X0066079Y0162944D01*
X0066093Y0162846D01*
X0066103Y0162747D01*
X0066109Y0162647D01*
X0066111Y0162548D01*
X0066109Y0162449D01*
X0066103Y0162349D01*
X0066093Y0162250D01*
X0066079Y0162152D01*
X0066062Y0162054D01*
X0066040Y0161957D01*
X0066015Y0161861D01*
X0065986Y0161766D01*
X0065953Y0161672D01*
X0065916Y0161580D01*
X0065876Y0161489D01*
X0065832Y0161400D01*
X0065784Y0161312D01*
X0065733Y0161227D01*
X0065679Y0161144D01*
X0065622Y0161062D01*
X0065561Y0160984D01*
X0065497Y0160907D01*
X0065431Y0160834D01*
X0065361Y0160763D01*
X0065289Y0160695D01*
X0065214Y0160629D01*
X0065136Y0160567D01*
X0065056Y0160508D01*
X0064974Y0160452D01*
X0064890Y0160400D01*
X0064803Y0160351D01*
X0064715Y0160305D01*
X0064625Y0160263D01*
X0064533Y0160224D01*
X0064440Y0160189D01*
X0064346Y0160158D01*
X0064250Y0160131D01*
X0064153Y0160108D01*
X0064056Y0160088D01*
X0063958Y0160072D01*
X0063859Y0160060D01*
X0063760Y0160052D01*
X0063661Y0160048D01*
X0063561Y0160048D01*
X0063462Y0160052D01*
X0063363Y0160060D01*
X0063264Y0160072D01*
X0063166Y0160088D01*
X0063069Y0160108D01*
X0062972Y0160131D01*
X0062876Y0160158D01*
X0062782Y0160189D01*
X0062689Y0160224D01*
X0062597Y0160263D01*
X0062507Y0160305D01*
X0062419Y0160351D01*
X0062332Y0160400D01*
X0062248Y0160452D01*
X0062166Y0160508D01*
X0062086Y0160567D01*
X0062008Y0160629D01*
X0061933Y0160695D01*
X0061861Y0160763D01*
X0061791Y0160834D01*
X0061725Y0160907D01*
X0061661Y0160984D01*
X0061600Y0161062D01*
X0061543Y0161144D01*
X0061489Y0161227D01*
X0061438Y0161312D01*
X0061390Y0161400D01*
X0061346Y0161489D01*
X0061306Y0161580D01*
X0061269Y0161672D01*
X0061236Y0161766D01*
X0061207Y0161861D01*
X0061182Y0161957D01*
X0061160Y0162054D01*
X0061143Y0162152D01*
X0061129Y0162250D01*
X0061119Y0162349D01*
X0061113Y0162449D01*
X0061111Y0162548D01*
D11*
X0061367Y0157080D02*
X0061367Y0134080D01*
X0021367Y0134080D01*
X0021367Y0157080D01*
X0061367Y0157080D01*
X0102863Y0157080D02*
X0102863Y0134080D01*
X0142863Y0134080D01*
X0142863Y0157080D01*
X0102863Y0157080D01*
X0025116Y0125848D02*
X0018711Y0121578D01*
X0025116Y0121578D01*
X0021914Y0119403D02*
X0022981Y0118335D01*
X0022981Y0116200D01*
X0021914Y0115132D01*
X0020846Y0115132D01*
X0020846Y0119403D01*
X0019779Y0119403D02*
X0021914Y0119403D01*
X0019779Y0119403D02*
X0018711Y0118335D01*
X0018711Y0116200D01*
X0019779Y0112957D02*
X0018711Y0111889D01*
X0018711Y0108687D01*
X0017643Y0108687D02*
X0022981Y0108687D01*
X0022981Y0111889D01*
X0021914Y0112957D01*
X0019779Y0112957D01*
X0016576Y0110822D02*
X0016576Y0109754D01*
X0017643Y0108687D01*
X0019779Y0106512D02*
X0020846Y0105444D01*
X0020846Y0102241D01*
X0021914Y0102241D02*
X0018711Y0102241D01*
X0018711Y0105444D01*
X0019779Y0106512D01*
X0022981Y0105444D02*
X0022981Y0103309D01*
X0021914Y0102241D01*
X0022981Y0100066D02*
X0022981Y0097931D01*
X0024049Y0098998D02*
X0019779Y0098998D01*
X0018711Y0097931D01*
X0018711Y0095769D02*
X0018711Y0093634D01*
X0018711Y0094701D02*
X0022981Y0094701D01*
X0022981Y0095769D01*
X0025116Y0094701D02*
X0026184Y0094701D01*
X0022981Y0091472D02*
X0018711Y0089337D01*
X0022981Y0087202D01*
X0021914Y0085027D02*
X0019779Y0085027D01*
X0018711Y0083959D01*
X0018711Y0081824D01*
X0020846Y0080756D02*
X0020846Y0085027D01*
X0021914Y0085027D02*
X0022981Y0083959D01*
X0022981Y0081824D01*
X0021914Y0080756D01*
X0020846Y0080756D01*
X0020846Y0065690D02*
X0022981Y0065690D01*
X0025116Y0063555D01*
X0021914Y0061393D02*
X0021914Y0057123D01*
X0025116Y0054948D02*
X0022981Y0052812D01*
X0020846Y0052812D01*
X0018711Y0054948D01*
X0018711Y0063555D02*
X0020846Y0065690D01*
X0018711Y0125848D02*
X0025116Y0125848D01*
X0037311Y0220648D02*
X0040514Y0220648D01*
X0041581Y0221716D01*
X0041581Y0225986D01*
X0040514Y0227053D01*
X0037311Y0227053D01*
X0037311Y0220648D01*
X0043757Y0221716D02*
X0044824Y0220648D01*
X0046959Y0220648D01*
X0048027Y0221716D01*
X0048027Y0223851D01*
X0046959Y0224918D01*
X0044824Y0224918D01*
X0043757Y0223851D01*
X0043757Y0221716D01*
X0050202Y0221716D02*
X0050202Y0223851D01*
X0051270Y0224918D01*
X0053405Y0224918D01*
X0054472Y0223851D01*
X0054472Y0221716D01*
X0053405Y0220648D01*
X0051270Y0220648D01*
X0050202Y0221716D01*
X0056648Y0222783D02*
X0058783Y0224918D01*
X0059850Y0224918D01*
X0062019Y0224918D02*
X0065221Y0224918D01*
X0066289Y0223851D01*
X0066289Y0221716D01*
X0065221Y0220648D01*
X0062019Y0220648D01*
X0062019Y0227053D01*
X0056648Y0224918D02*
X0056648Y0220648D01*
X0068464Y0221716D02*
X0068464Y0223851D01*
X0069532Y0224918D01*
X0071667Y0224918D01*
X0072735Y0223851D01*
X0072735Y0222783D01*
X0068464Y0222783D01*
X0068464Y0221716D02*
X0069532Y0220648D01*
X0071667Y0220648D01*
X0074910Y0220648D02*
X0077045Y0220648D01*
X0075977Y0220648D02*
X0075977Y0227053D01*
X0074910Y0227053D01*
X0079207Y0227053D02*
X0080274Y0227053D01*
X0080274Y0220648D01*
X0079207Y0220648D02*
X0081342Y0220648D01*
X0089949Y0220648D02*
X0094220Y0220648D01*
X0092084Y0220648D02*
X0092084Y0227053D01*
X0089949Y0224918D01*
X0102311Y0227053D02*
X0102311Y0220648D01*
X0105514Y0220648D01*
X0106581Y0221716D01*
X0106581Y0225986D01*
X0105514Y0227053D01*
X0102311Y0227053D01*
X0108757Y0223851D02*
X0108757Y0221716D01*
X0109824Y0220648D01*
X0111959Y0220648D01*
X0113027Y0221716D01*
X0113027Y0223851D01*
X0111959Y0224918D01*
X0109824Y0224918D01*
X0108757Y0223851D01*
X0115202Y0223851D02*
X0115202Y0221716D01*
X0116270Y0220648D01*
X0118405Y0220648D01*
X0119472Y0221716D01*
X0119472Y0223851D01*
X0118405Y0224918D01*
X0116270Y0224918D01*
X0115202Y0223851D01*
X0121648Y0224918D02*
X0121648Y0220648D01*
X0121648Y0222783D02*
X0123783Y0224918D01*
X0124850Y0224918D01*
X0127019Y0224918D02*
X0130221Y0224918D01*
X0131289Y0223851D01*
X0131289Y0221716D01*
X0130221Y0220648D01*
X0127019Y0220648D01*
X0127019Y0227053D01*
X0133464Y0223851D02*
X0133464Y0221716D01*
X0134532Y0220648D01*
X0136667Y0220648D01*
X0137735Y0222783D02*
X0133464Y0222783D01*
X0133464Y0223851D02*
X0134532Y0224918D01*
X0136667Y0224918D01*
X0137735Y0223851D01*
X0137735Y0222783D01*
X0139910Y0220648D02*
X0142045Y0220648D01*
X0140977Y0220648D02*
X0140977Y0227053D01*
X0139910Y0227053D01*
X0144207Y0227053D02*
X0145274Y0227053D01*
X0145274Y0220648D01*
X0144207Y0220648D02*
X0146342Y0220648D01*
X0154949Y0220648D02*
X0159220Y0224918D01*
X0159220Y0225986D01*
X0158152Y0227053D01*
X0156017Y0227053D01*
X0154949Y0225986D01*
X0154949Y0220648D02*
X0159220Y0220648D01*
X0198611Y0220048D02*
X0198611Y0215048D01*
X0201111Y0212548D01*
X0206111Y0212548D01*
X0208611Y0215048D01*
X0208611Y0220048D01*
X0206111Y0222548D01*
X0201111Y0222548D01*
X0198611Y0220048D01*
X0208611Y0220048D02*
X0211111Y0222548D01*
X0216111Y0222548D01*
X0218611Y0220048D01*
X0221111Y0222548D01*
X0226111Y0222548D01*
X0228611Y0220048D01*
X0231111Y0222548D01*
X0236111Y0222548D01*
X0238611Y0220048D01*
X0241111Y0222548D01*
X0246111Y0222548D01*
X0248611Y0220048D01*
X0251111Y0222548D01*
X0256111Y0222548D01*
X0258611Y0220048D01*
X0261111Y0222548D01*
X0266111Y0222548D01*
X0268611Y0220048D01*
X0271111Y0222548D01*
X0276111Y0222548D01*
X0278611Y0220048D01*
X0281111Y0222548D01*
X0286111Y0222548D01*
X0288611Y0220048D01*
X0291111Y0222548D01*
X0296111Y0222548D01*
X0298611Y0220048D01*
X0301111Y0222548D01*
X0306111Y0222548D01*
X0308611Y0220048D01*
X0311111Y0222548D01*
X0316111Y0222548D01*
X0318611Y0220048D01*
X0321111Y0222548D01*
X0326111Y0222548D01*
X0328611Y0220048D01*
X0331111Y0222548D01*
X0336111Y0222548D01*
X0338611Y0220048D01*
X0341111Y0222548D01*
X0346111Y0222548D01*
X0348611Y0220048D01*
X0348611Y0215048D01*
X0346111Y0212548D01*
X0341111Y0212548D01*
X0338611Y0215048D01*
X0336111Y0212548D01*
X0331111Y0212548D01*
X0328611Y0215048D01*
X0328611Y0220048D01*
X0328611Y0215048D02*
X0326111Y0212548D01*
X0321111Y0212548D01*
X0318611Y0215048D01*
X0316111Y0212548D01*
X0311111Y0212548D01*
X0308611Y0215048D01*
X0306111Y0212548D01*
X0301111Y0212548D01*
X0298611Y0215048D01*
X0298611Y0220048D01*
X0298611Y0215048D02*
X0296111Y0212548D01*
X0291111Y0212548D01*
X0288611Y0215048D01*
X0286111Y0212548D01*
X0281111Y0212548D01*
X0278611Y0215048D01*
X0276111Y0212548D01*
X0271111Y0212548D01*
X0268611Y0215048D01*
X0268611Y0220048D01*
X0268611Y0215048D02*
X0266111Y0212548D01*
X0261111Y0212548D01*
X0258611Y0215048D01*
X0256111Y0212548D01*
X0251111Y0212548D01*
X0248611Y0215048D01*
X0246111Y0212548D01*
X0241111Y0212548D01*
X0238611Y0215048D01*
X0238611Y0220048D01*
X0238611Y0215048D02*
X0236111Y0212548D01*
X0231111Y0212548D01*
X0228611Y0215048D01*
X0226111Y0212548D01*
X0221111Y0212548D01*
X0218611Y0215048D01*
X0216111Y0212548D01*
X0211111Y0212548D01*
X0208611Y0215048D01*
X0218611Y0215048D02*
X0218611Y0220048D01*
X0228611Y0220048D02*
X0228611Y0215048D01*
X0248611Y0215048D02*
X0248611Y0220048D01*
X0258611Y0220048D02*
X0258611Y0215048D01*
X0278611Y0215048D02*
X0278611Y0220048D01*
X0288611Y0220048D02*
X0288611Y0215048D01*
X0308611Y0215048D02*
X0308611Y0220048D01*
X0318611Y0220048D02*
X0318611Y0215048D01*
X0338611Y0215048D02*
X0338611Y0220048D01*
X0336111Y0132548D02*
X0331111Y0132548D01*
X0328611Y0130048D01*
X0328611Y0125048D01*
X0331111Y0122548D01*
X0336111Y0122548D01*
X0338611Y0125048D01*
X0338611Y0130048D01*
X0336111Y0132548D01*
X0338611Y0130048D02*
X0341111Y0132548D01*
X0346111Y0132548D01*
X0348611Y0130048D01*
X0348611Y0125048D01*
X0346111Y0122548D01*
X0341111Y0122548D01*
X0338611Y0125048D01*
X0328611Y0125048D02*
X0326111Y0122548D01*
X0321111Y0122548D01*
X0318611Y0125048D01*
X0316111Y0122548D01*
X0311111Y0122548D01*
X0308611Y0125048D01*
X0306111Y0122548D01*
X0301111Y0122548D01*
X0298611Y0125048D01*
X0298611Y0130048D01*
X0301111Y0132548D01*
X0306111Y0132548D01*
X0308611Y0130048D01*
X0311111Y0132548D01*
X0316111Y0132548D01*
X0318611Y0130048D01*
X0321111Y0132548D01*
X0326111Y0132548D01*
X0328611Y0130048D01*
X0318611Y0130048D02*
X0318611Y0125048D01*
X0308611Y0125048D02*
X0308611Y0130048D01*
X0298611Y0130048D02*
X0296111Y0132548D01*
X0291111Y0132548D01*
X0288611Y0130048D01*
X0286111Y0132548D01*
X0281111Y0132548D01*
X0278611Y0130048D01*
X0276111Y0132548D01*
X0271111Y0132548D01*
X0268611Y0130048D01*
X0268611Y0125048D01*
X0271111Y0122548D01*
X0276111Y0122548D01*
X0278611Y0125048D01*
X0278611Y0130048D01*
X0278611Y0125048D02*
X0281111Y0122548D01*
X0286111Y0122548D01*
X0288611Y0125048D01*
X0288611Y0130048D01*
X0288611Y0125048D02*
X0291111Y0122548D01*
X0296111Y0122548D01*
X0298611Y0125048D01*
X0268611Y0125048D02*
X0266111Y0122548D01*
X0261111Y0122548D01*
X0258611Y0125048D01*
X0256111Y0122548D01*
X0251111Y0122548D01*
X0248611Y0125048D01*
X0246111Y0122548D01*
X0241111Y0122548D01*
X0238611Y0125048D01*
X0238611Y0130048D01*
X0241111Y0132548D01*
X0246111Y0132548D01*
X0248611Y0130048D01*
X0251111Y0132548D01*
X0256111Y0132548D01*
X0258611Y0130048D01*
X0261111Y0132548D01*
X0266111Y0132548D01*
X0268611Y0130048D01*
X0258611Y0130048D02*
X0258611Y0125048D01*
X0248611Y0125048D02*
X0248611Y0130048D01*
X0238611Y0130048D02*
X0236111Y0132548D01*
X0231111Y0132548D01*
X0228611Y0130048D01*
X0226111Y0132548D01*
X0221111Y0132548D01*
X0218611Y0130048D01*
X0216111Y0132548D01*
X0211111Y0132548D01*
X0208611Y0130048D01*
X0206111Y0132548D01*
X0201111Y0132548D01*
X0198611Y0130048D01*
X0198611Y0125048D01*
X0201111Y0122548D01*
X0206111Y0122548D01*
X0208611Y0125048D01*
X0208611Y0130048D01*
X0208611Y0125048D02*
X0211111Y0122548D01*
X0216111Y0122548D01*
X0218611Y0125048D01*
X0218611Y0130048D01*
X0218611Y0125048D02*
X0221111Y0122548D01*
X0226111Y0122548D01*
X0228611Y0125048D01*
X0228611Y0130048D01*
X0228611Y0125048D02*
X0231111Y0122548D01*
X0236111Y0122548D01*
X0238611Y0125048D01*
X0373911Y0123535D02*
X0373911Y0121400D01*
X0374979Y0120332D01*
X0377114Y0120332D01*
X0378181Y0121400D01*
X0378181Y0123535D01*
X0377114Y0124603D01*
X0374979Y0124603D01*
X0373911Y0123535D01*
X0377114Y0126778D02*
X0376046Y0127845D01*
X0376046Y0131048D01*
X0373911Y0131048D02*
X0380316Y0131048D01*
X0380316Y0127845D01*
X0379249Y0126778D01*
X0377114Y0126778D01*
X0377114Y0118157D02*
X0378181Y0117089D01*
X0378181Y0113887D01*
X0378181Y0111712D02*
X0378181Y0110644D01*
X0373911Y0110644D01*
X0373911Y0111712D02*
X0373911Y0109576D01*
X0374979Y0106347D02*
X0373911Y0105279D01*
X0374979Y0106347D02*
X0379249Y0106347D01*
X0378181Y0107415D02*
X0378181Y0105279D01*
X0378181Y0103118D02*
X0378181Y0102050D01*
X0373911Y0102050D01*
X0373911Y0103118D02*
X0373911Y0100982D01*
X0373911Y0096685D02*
X0378181Y0098821D01*
X0380316Y0102050D02*
X0381384Y0102050D01*
X0378181Y0094550D02*
X0373911Y0096685D01*
X0374979Y0092375D02*
X0377114Y0092375D01*
X0378181Y0091307D01*
X0378181Y0089172D01*
X0377114Y0088105D01*
X0376046Y0088105D01*
X0376046Y0092375D01*
X0374979Y0092375D02*
X0373911Y0091307D01*
X0373911Y0089172D01*
X0380316Y0110644D02*
X0381384Y0110644D01*
X0376046Y0114954D02*
X0376046Y0117089D01*
X0377114Y0118157D01*
X0373911Y0118157D02*
X0373911Y0114954D01*
X0374979Y0113887D01*
X0376046Y0114954D01*
D12*
X0248602Y0027174D02*
X0248602Y0024105D01*
X0248602Y0022570D02*
X0248602Y0021803D01*
X0247067Y0022570D02*
X0246300Y0023338D01*
X0244765Y0023338D01*
X0243998Y0024105D01*
X0244765Y0024872D01*
X0247067Y0024872D01*
X0247067Y0022570D02*
X0246300Y0021803D01*
X0243998Y0021803D01*
X0242464Y0021803D02*
X0240162Y0021803D01*
X0239394Y0022570D01*
X0239394Y0024105D01*
X0240162Y0024872D01*
X0242464Y0024872D01*
X0242464Y0026407D02*
X0242464Y0021803D01*
X0237860Y0024872D02*
X0237092Y0024872D01*
X0235558Y0023338D01*
X0235558Y0024872D02*
X0235558Y0021803D01*
X0234023Y0021803D02*
X0234023Y0024105D01*
X0233256Y0024872D01*
X0231721Y0024872D01*
X0231721Y0023338D02*
X0234023Y0023338D01*
X0234023Y0021803D02*
X0231721Y0021803D01*
X0230954Y0022570D01*
X0231721Y0023338D01*
X0229419Y0022570D02*
X0229419Y0024872D01*
X0229419Y0022570D02*
X0228652Y0021803D01*
X0227884Y0022570D01*
X0227117Y0021803D01*
X0226350Y0022570D01*
X0226350Y0024872D01*
X0224815Y0024872D02*
X0222513Y0023338D01*
X0224815Y0021803D01*
X0222513Y0021803D02*
X0222513Y0026407D01*
X0220979Y0024872D02*
X0218677Y0024872D01*
X0217909Y0024105D01*
X0217909Y0022570D01*
X0218677Y0021803D01*
X0220979Y0021803D01*
X0216375Y0021803D02*
X0216375Y0024105D01*
X0215607Y0024872D01*
X0214073Y0024872D01*
X0214073Y0023338D02*
X0216375Y0023338D01*
X0216375Y0021803D02*
X0214073Y0021803D01*
X0213305Y0022570D01*
X0214073Y0023338D01*
X0211771Y0023338D02*
X0211771Y0022570D01*
X0211003Y0021803D01*
X0208701Y0021803D01*
X0208701Y0026407D01*
X0211003Y0026407D01*
X0211771Y0025640D01*
X0211771Y0024872D01*
X0211003Y0024105D01*
X0208701Y0024105D01*
X0211003Y0024105D02*
X0211771Y0023338D01*
X0211003Y0029303D02*
X0209469Y0029303D01*
X0208701Y0030070D01*
X0208701Y0031605D01*
X0211003Y0031605D01*
X0211771Y0030838D01*
X0211771Y0030070D01*
X0211003Y0029303D01*
X0213305Y0030070D02*
X0214073Y0029303D01*
X0215607Y0029303D01*
X0216375Y0030070D01*
X0216375Y0031605D01*
X0215607Y0032372D01*
X0214840Y0032372D01*
X0213305Y0031605D01*
X0213305Y0033907D01*
X0216375Y0033907D01*
X0217909Y0033140D02*
X0218677Y0033907D01*
X0220211Y0033907D01*
X0220979Y0033140D01*
X0217909Y0030070D01*
X0218677Y0029303D01*
X0220211Y0029303D01*
X0220979Y0030070D01*
X0220979Y0033140D01*
X0217909Y0033140D02*
X0217909Y0030070D01*
X0211771Y0033907D02*
X0210236Y0033140D01*
X0208701Y0031605D01*
X0207167Y0030838D02*
X0207167Y0030070D01*
X0206399Y0029303D01*
X0204865Y0029303D01*
X0204097Y0030070D01*
X0204097Y0030838D01*
X0204865Y0031605D01*
X0206399Y0031605D01*
X0207167Y0030838D01*
X0206399Y0031605D02*
X0207167Y0032372D01*
X0207167Y0033140D01*
X0206399Y0033907D01*
X0204865Y0033907D01*
X0204097Y0033140D01*
X0204097Y0032372D01*
X0204865Y0031605D01*
X0202563Y0029303D02*
X0199494Y0029303D01*
X0201028Y0029303D02*
X0201028Y0033907D01*
X0199494Y0032372D01*
X0193355Y0032372D02*
X0190286Y0029303D01*
X0188751Y0029303D02*
X0185682Y0029303D01*
X0187216Y0029303D02*
X0187216Y0033907D01*
X0185682Y0032372D01*
X0190286Y0032372D02*
X0193355Y0029303D01*
X0196424Y0026407D02*
X0197959Y0026407D01*
X0197192Y0026407D02*
X0197192Y0021803D01*
X0197959Y0021803D02*
X0196424Y0021803D01*
X0199494Y0021803D02*
X0199494Y0024872D01*
X0201796Y0024872D01*
X0202563Y0024105D01*
X0202563Y0021803D01*
X0190286Y0021803D02*
X0189518Y0022570D01*
X0189518Y0025640D01*
X0188751Y0024872D02*
X0190286Y0024872D01*
X0187216Y0024872D02*
X0187216Y0021803D01*
X0184914Y0021803D01*
X0184147Y0022570D01*
X0184147Y0024872D01*
X0182612Y0024105D02*
X0181845Y0023338D01*
X0179543Y0023338D01*
X0179543Y0021803D02*
X0179543Y0026407D01*
X0181845Y0026407D01*
X0182612Y0025640D01*
X0182612Y0024105D01*
X0173405Y0024872D02*
X0171870Y0024872D01*
X0172637Y0025640D02*
X0172637Y0022570D01*
X0173405Y0021803D01*
X0170335Y0022570D02*
X0170335Y0024105D01*
X0169568Y0024872D01*
X0168033Y0024872D01*
X0167266Y0024105D01*
X0167266Y0022570D01*
X0168033Y0021803D01*
X0169568Y0021803D01*
X0170335Y0022570D01*
X0165731Y0021803D02*
X0165731Y0026407D01*
X0162662Y0026407D02*
X0165731Y0021803D01*
X0162662Y0021803D02*
X0162662Y0026407D01*
X0156524Y0024105D02*
X0155756Y0024872D01*
X0154222Y0024872D01*
X0153454Y0024105D01*
X0153454Y0022570D01*
X0154222Y0021803D01*
X0155756Y0021803D01*
X0156524Y0022570D01*
X0156524Y0024105D01*
X0151920Y0022570D02*
X0151920Y0025640D01*
X0151152Y0026407D01*
X0148850Y0026407D01*
X0148850Y0021803D01*
X0151152Y0021803D01*
X0151920Y0022570D01*
X0173850Y0061803D02*
X0176920Y0061803D01*
X0175385Y0061803D02*
X0175385Y0066407D01*
X0173850Y0064872D01*
X0178454Y0064872D02*
X0178454Y0065640D01*
X0179222Y0066407D01*
X0180756Y0066407D01*
X0181524Y0065640D01*
X0181524Y0064872D01*
X0180756Y0064105D01*
X0179222Y0064105D01*
X0178454Y0064872D01*
X0179222Y0064105D02*
X0178454Y0063338D01*
X0178454Y0062570D01*
X0179222Y0061803D01*
X0180756Y0061803D01*
X0181524Y0062570D01*
X0181524Y0063338D01*
X0180756Y0064105D01*
X0183058Y0064105D02*
X0184593Y0065640D01*
X0186128Y0066407D01*
X0187662Y0066407D02*
X0187662Y0064105D01*
X0189197Y0064872D01*
X0189964Y0064872D01*
X0190731Y0064105D01*
X0190731Y0062570D01*
X0189964Y0061803D01*
X0188429Y0061803D01*
X0187662Y0062570D01*
X0186128Y0062570D02*
X0185360Y0061803D01*
X0183826Y0061803D01*
X0183058Y0062570D01*
X0183058Y0064105D01*
X0185360Y0064105D01*
X0186128Y0063338D01*
X0186128Y0062570D01*
X0187662Y0066407D02*
X0190731Y0066407D01*
X0192266Y0065640D02*
X0193033Y0066407D01*
X0194568Y0066407D01*
X0195335Y0065640D01*
X0192266Y0062570D01*
X0193033Y0061803D01*
X0194568Y0061803D01*
X0195335Y0062570D01*
X0195335Y0065640D01*
X0192266Y0065640D02*
X0192266Y0062570D01*
X0201474Y0061803D02*
X0203776Y0061803D01*
X0204543Y0062570D01*
X0204543Y0063338D01*
X0203776Y0064105D01*
X0201474Y0064105D01*
X0201474Y0061803D02*
X0201474Y0066407D01*
X0203776Y0066407D01*
X0204543Y0065640D01*
X0204543Y0064872D01*
X0203776Y0064105D01*
X0206078Y0062570D02*
X0206845Y0063338D01*
X0209147Y0063338D01*
X0209147Y0064105D02*
X0209147Y0061803D01*
X0206845Y0061803D01*
X0206078Y0062570D01*
X0206845Y0064872D02*
X0208380Y0064872D01*
X0209147Y0064105D01*
X0210682Y0064872D02*
X0212216Y0064872D01*
X0211449Y0065640D02*
X0211449Y0062570D01*
X0212216Y0061803D01*
X0214518Y0062570D02*
X0215286Y0061803D01*
X0214518Y0062570D02*
X0214518Y0065640D01*
X0213751Y0064872D02*
X0215286Y0064872D01*
X0216820Y0064105D02*
X0217588Y0064872D01*
X0219122Y0064872D01*
X0219890Y0064105D01*
X0219890Y0063338D01*
X0216820Y0063338D01*
X0216820Y0064105D02*
X0216820Y0062570D01*
X0217588Y0061803D01*
X0219122Y0061803D01*
X0221424Y0061803D02*
X0221424Y0064872D01*
X0221424Y0063338D02*
X0222959Y0064872D01*
X0223726Y0064872D01*
X0225261Y0064872D02*
X0225261Y0062570D01*
X0226028Y0061803D01*
X0228330Y0061803D01*
X0228330Y0061036D02*
X0227563Y0060269D01*
X0226796Y0060269D01*
X0228330Y0061036D02*
X0228330Y0064872D01*
X0202081Y0135899D02*
X0202081Y0137634D01*
X0202948Y0136766D02*
X0199478Y0136766D01*
X0198611Y0135899D01*
X0198611Y0139336D02*
X0198611Y0141071D01*
X0198611Y0140204D02*
X0202081Y0140204D01*
X0202081Y0141071D01*
X0203815Y0140204D02*
X0204683Y0140204D01*
X0203815Y0142758D02*
X0200346Y0146228D01*
X0201213Y0145360D02*
X0198611Y0142758D01*
X0198611Y0146228D02*
X0203815Y0146228D01*
X0201213Y0147914D02*
X0201213Y0151384D01*
X0200346Y0153071D02*
X0199478Y0153071D01*
X0198611Y0153938D01*
X0198611Y0155673D01*
X0199478Y0156540D01*
X0198611Y0158227D02*
X0198611Y0161697D01*
X0202081Y0158227D01*
X0202948Y0158227D01*
X0203815Y0159095D01*
X0203815Y0160829D01*
X0202948Y0161697D01*
X0202948Y0163384D02*
X0202081Y0163384D01*
X0201213Y0164251D01*
X0200346Y0163384D01*
X0199478Y0163384D01*
X0198611Y0164251D01*
X0198611Y0165986D01*
X0199478Y0166853D01*
X0201213Y0168540D02*
X0201213Y0172010D01*
X0200346Y0173696D02*
X0199478Y0173696D01*
X0198611Y0174564D01*
X0198611Y0176299D01*
X0199478Y0177166D01*
X0199478Y0178853D02*
X0198611Y0179720D01*
X0198611Y0181455D01*
X0199478Y0182322D01*
X0202948Y0182322D01*
X0203815Y0181455D01*
X0203815Y0179720D01*
X0202948Y0178853D01*
X0202948Y0177166D02*
X0203815Y0176299D01*
X0203815Y0174564D01*
X0202948Y0173696D01*
X0202081Y0173696D01*
X0201213Y0174564D01*
X0200346Y0173696D01*
X0201213Y0174564D02*
X0201213Y0175431D01*
X0207011Y0175447D02*
X0210481Y0175447D01*
X0210481Y0172845D01*
X0209613Y0171978D01*
X0207011Y0171978D01*
X0207011Y0170291D02*
X0212215Y0170291D01*
X0210481Y0167689D02*
X0208746Y0170291D01*
X0207011Y0167689D01*
X0207878Y0165994D02*
X0209613Y0165994D01*
X0210481Y0165126D01*
X0210481Y0163392D01*
X0209613Y0162524D01*
X0208746Y0162524D01*
X0208746Y0165994D01*
X0207878Y0165994D02*
X0207011Y0165126D01*
X0207011Y0163392D01*
X0207011Y0160837D02*
X0210481Y0160837D01*
X0210481Y0159103D02*
X0208746Y0160837D01*
X0210481Y0159103D02*
X0210481Y0158235D01*
X0203815Y0155673D02*
X0202948Y0156540D01*
X0202081Y0156540D01*
X0201213Y0155673D01*
X0201213Y0153938D01*
X0200346Y0153071D01*
X0202948Y0153071D02*
X0203815Y0153938D01*
X0203815Y0155673D01*
X0202948Y0163384D02*
X0203815Y0164251D01*
X0203815Y0165986D01*
X0202948Y0166853D01*
X0201213Y0165118D02*
X0201213Y0164251D01*
X0207011Y0177150D02*
X0207011Y0178885D01*
X0207011Y0178017D02*
X0210481Y0178017D01*
X0210481Y0178885D01*
X0209613Y0180572D02*
X0207011Y0180572D01*
X0209613Y0180572D02*
X0210481Y0181439D01*
X0210481Y0183174D01*
X0209613Y0184041D01*
X0212215Y0184041D02*
X0207011Y0184041D01*
X0212215Y0185728D02*
X0212215Y0189198D01*
X0212215Y0187463D02*
X0207011Y0187463D01*
X0203815Y0190033D02*
X0202948Y0189166D01*
X0201213Y0189166D01*
X0200346Y0190033D01*
X0200346Y0192635D01*
X0200346Y0194322D02*
X0199478Y0194322D01*
X0198611Y0195189D01*
X0198611Y0196924D01*
X0199478Y0197792D01*
X0198611Y0199478D02*
X0198611Y0202948D01*
X0203815Y0202948D01*
X0203815Y0199478D01*
X0202948Y0197792D02*
X0202081Y0197792D01*
X0201213Y0196924D01*
X0201213Y0195189D01*
X0200346Y0194322D01*
X0198611Y0192635D02*
X0203815Y0192635D01*
X0203815Y0190033D01*
X0201213Y0187479D02*
X0201213Y0184009D01*
X0209613Y0190884D02*
X0209613Y0194354D01*
X0207011Y0196057D02*
X0207011Y0197792D01*
X0207011Y0196924D02*
X0212215Y0196924D01*
X0212215Y0196057D02*
X0212215Y0197792D01*
X0210481Y0199478D02*
X0207011Y0199478D01*
X0209613Y0199478D02*
X0209613Y0202948D01*
X0210481Y0202948D02*
X0212215Y0201213D01*
X0210481Y0199478D01*
X0210481Y0202948D02*
X0207011Y0202948D01*
X0201213Y0202948D02*
X0201213Y0201213D01*
X0202948Y0197792D02*
X0203815Y0196924D01*
X0203815Y0195189D01*
X0202948Y0194322D01*
X0212215Y0178017D02*
X0213083Y0178017D01*
D13*
X0037161Y0022917D02*
X0037161Y0020982D01*
X0037645Y0020498D01*
X0038612Y0020498D01*
X0039096Y0020982D01*
X0040108Y0020982D02*
X0040108Y0022917D01*
X0040591Y0023401D01*
X0041559Y0023401D01*
X0042043Y0022917D01*
X0043054Y0021949D02*
X0044989Y0021949D01*
X0046001Y0021949D02*
X0047452Y0021949D01*
X0047936Y0021466D01*
X0047936Y0020982D01*
X0047452Y0020498D01*
X0046001Y0020498D01*
X0046001Y0023401D01*
X0047452Y0023401D01*
X0047936Y0022917D01*
X0047936Y0022433D01*
X0047452Y0021949D01*
X0048947Y0022917D02*
X0049915Y0021949D01*
X0049915Y0020498D01*
X0049915Y0021949D02*
X0050882Y0022917D01*
X0050882Y0023401D01*
X0051894Y0021949D02*
X0053829Y0021949D01*
X0054840Y0022433D02*
X0055324Y0021949D01*
X0056291Y0021949D01*
X0056775Y0021466D01*
X0056775Y0020982D01*
X0056291Y0020498D01*
X0055324Y0020498D01*
X0054840Y0020982D01*
X0054840Y0022433D02*
X0054840Y0022917D01*
X0055324Y0023401D01*
X0056291Y0023401D01*
X0056775Y0022917D01*
X0057787Y0022433D02*
X0058754Y0023401D01*
X0059722Y0022433D01*
X0059722Y0020498D01*
X0059722Y0021949D02*
X0057787Y0021949D01*
X0057787Y0022433D02*
X0057787Y0020498D01*
X0056782Y0024331D02*
X0056299Y0024331D01*
X0056782Y0024331D02*
X0057266Y0024814D01*
X0057266Y0027233D01*
X0055331Y0027233D02*
X0055331Y0025782D01*
X0055815Y0025298D01*
X0057266Y0025298D01*
X0054334Y0025298D02*
X0053851Y0025782D01*
X0053851Y0027717D01*
X0054334Y0027233D02*
X0053367Y0027233D01*
X0051886Y0027233D02*
X0051886Y0025298D01*
X0051403Y0025298D02*
X0052370Y0025298D01*
X0050391Y0025298D02*
X0050391Y0026749D01*
X0049907Y0027233D01*
X0048456Y0027233D01*
X0048456Y0025298D01*
X0047444Y0026266D02*
X0047444Y0026749D01*
X0046961Y0027233D01*
X0045993Y0027233D01*
X0045509Y0026749D01*
X0045509Y0025782D01*
X0045993Y0025298D01*
X0046961Y0025298D01*
X0047444Y0026266D02*
X0045509Y0026266D01*
X0044505Y0027233D02*
X0044022Y0027233D01*
X0043054Y0026266D01*
X0043054Y0027233D02*
X0043054Y0025298D01*
X0042043Y0026266D02*
X0040108Y0026266D01*
X0040108Y0026749D02*
X0040108Y0025782D01*
X0040591Y0025298D01*
X0041559Y0025298D01*
X0042043Y0026266D02*
X0042043Y0026749D01*
X0041559Y0027233D01*
X0040591Y0027233D01*
X0040108Y0026749D01*
X0039096Y0026266D02*
X0039096Y0025782D01*
X0038612Y0025298D01*
X0037645Y0025298D01*
X0037161Y0025782D01*
X0037645Y0026749D02*
X0038612Y0026749D01*
X0039096Y0026266D01*
X0039096Y0027717D02*
X0038612Y0028201D01*
X0037645Y0028201D01*
X0037161Y0027717D01*
X0037161Y0027233D01*
X0037645Y0026749D01*
X0038129Y0030098D02*
X0037161Y0031066D01*
X0037161Y0032033D01*
X0038129Y0033001D01*
X0039125Y0032517D02*
X0039125Y0030582D01*
X0039609Y0030098D01*
X0040577Y0030098D01*
X0041060Y0030582D01*
X0042072Y0030098D02*
X0043039Y0031066D01*
X0043039Y0032033D01*
X0042072Y0033001D01*
X0041060Y0032517D02*
X0040577Y0033001D01*
X0039609Y0033001D01*
X0039125Y0032517D01*
X0046983Y0030582D02*
X0047466Y0030098D01*
X0047950Y0030098D01*
X0048434Y0030582D01*
X0048434Y0033001D01*
X0047950Y0033001D02*
X0048918Y0033001D01*
X0049929Y0031549D02*
X0049929Y0030582D01*
X0050413Y0030098D01*
X0051380Y0030098D01*
X0051864Y0030582D01*
X0051864Y0031549D01*
X0051380Y0032033D01*
X0050413Y0032033D01*
X0049929Y0031549D01*
X0052876Y0031549D02*
X0053360Y0032033D01*
X0054327Y0032033D01*
X0054811Y0031549D01*
X0054811Y0030098D01*
X0055822Y0030098D02*
X0055822Y0032033D01*
X0057274Y0032033D01*
X0057757Y0031549D01*
X0057757Y0030098D01*
X0061224Y0028201D02*
X0062675Y0028201D01*
X0063159Y0027717D01*
X0063159Y0025782D01*
X0062675Y0025298D01*
X0061224Y0025298D01*
X0061224Y0028201D01*
X0063189Y0030098D02*
X0064156Y0031066D01*
X0065124Y0030098D01*
X0065124Y0033001D01*
X0066619Y0032033D02*
X0067586Y0032033D01*
X0068070Y0031549D01*
X0068070Y0030098D01*
X0066619Y0030098D01*
X0066135Y0030582D01*
X0066619Y0031066D01*
X0068070Y0031066D01*
X0069082Y0031066D02*
X0070049Y0032033D01*
X0070533Y0032033D01*
X0071537Y0032033D02*
X0072505Y0032033D01*
X0072021Y0032517D02*
X0072021Y0030582D01*
X0072505Y0030098D01*
X0073501Y0030098D02*
X0073501Y0033001D01*
X0073985Y0032033D02*
X0074953Y0032033D01*
X0075436Y0031549D01*
X0075436Y0030098D01*
X0076448Y0030582D02*
X0076448Y0031549D01*
X0076932Y0032033D01*
X0077899Y0032033D01*
X0078383Y0031549D01*
X0078383Y0030582D01*
X0077899Y0030098D01*
X0076932Y0030098D01*
X0076448Y0030582D01*
X0073985Y0032033D02*
X0073501Y0031549D01*
X0069082Y0032033D02*
X0069082Y0030098D01*
X0068569Y0027233D02*
X0067601Y0027233D01*
X0067117Y0026749D01*
X0067117Y0025782D01*
X0067601Y0025298D01*
X0068569Y0025298D01*
X0069052Y0025782D01*
X0069052Y0026749D01*
X0068569Y0027233D01*
X0070064Y0027233D02*
X0070064Y0025298D01*
X0070064Y0026266D02*
X0071031Y0027233D01*
X0071515Y0027233D01*
X0072519Y0027233D02*
X0073970Y0027233D01*
X0074454Y0026749D01*
X0074454Y0025782D01*
X0073970Y0025298D01*
X0072519Y0025298D01*
X0072519Y0028201D01*
X0075466Y0026749D02*
X0075949Y0027233D01*
X0076917Y0027233D01*
X0077401Y0026749D01*
X0077401Y0026266D01*
X0075466Y0026266D01*
X0075466Y0026749D02*
X0075466Y0025782D01*
X0075949Y0025298D01*
X0076917Y0025298D01*
X0078412Y0025298D02*
X0079380Y0025298D01*
X0078896Y0025298D02*
X0078896Y0028201D01*
X0078412Y0028201D01*
X0080377Y0028201D02*
X0080860Y0028201D01*
X0080860Y0025298D01*
X0080377Y0025298D02*
X0081344Y0025298D01*
X0085287Y0025782D02*
X0085771Y0025298D01*
X0086739Y0025298D01*
X0087222Y0025782D01*
X0087222Y0026266D01*
X0086739Y0026749D01*
X0085771Y0026749D01*
X0085287Y0027233D01*
X0085287Y0027717D01*
X0085771Y0028201D01*
X0086739Y0028201D01*
X0087222Y0027717D01*
X0088234Y0026749D02*
X0088234Y0025782D01*
X0088718Y0025298D01*
X0089685Y0025298D01*
X0090169Y0026266D02*
X0088234Y0026266D01*
X0088234Y0026749D02*
X0088718Y0027233D01*
X0089685Y0027233D01*
X0090169Y0026749D01*
X0090169Y0026266D01*
X0091181Y0027233D02*
X0091181Y0025298D01*
X0093115Y0025298D02*
X0093115Y0026749D01*
X0092632Y0027233D01*
X0091181Y0027233D01*
X0091642Y0030098D02*
X0091642Y0033001D01*
X0091642Y0031549D02*
X0089707Y0031549D01*
X0089707Y0030098D02*
X0089707Y0033001D01*
X0093137Y0032033D02*
X0094105Y0032033D01*
X0094589Y0031549D01*
X0094589Y0030098D01*
X0093137Y0030098D01*
X0092654Y0030582D01*
X0093137Y0031066D01*
X0094589Y0031066D01*
X0095600Y0030582D02*
X0095600Y0032033D01*
X0095600Y0030582D02*
X0096084Y0030098D01*
X0096568Y0030582D01*
X0097052Y0030098D01*
X0097535Y0030582D01*
X0097535Y0032033D01*
X0098547Y0033001D02*
X0099031Y0033001D01*
X0099031Y0030098D01*
X0099514Y0030098D02*
X0098547Y0030098D01*
X0100511Y0030582D02*
X0100511Y0031549D01*
X0100995Y0032033D01*
X0101962Y0032033D01*
X0102446Y0031549D01*
X0102446Y0031066D01*
X0100511Y0031066D01*
X0100511Y0030582D02*
X0100995Y0030098D01*
X0101962Y0030098D01*
X0103458Y0030582D02*
X0103458Y0032033D01*
X0103458Y0030582D02*
X0103941Y0030098D01*
X0105393Y0030098D01*
X0105393Y0029614D02*
X0104909Y0029131D01*
X0104425Y0029131D01*
X0105393Y0029614D02*
X0105393Y0032033D01*
X0105422Y0027233D02*
X0106389Y0025298D01*
X0107357Y0027233D01*
X0108369Y0027717D02*
X0108852Y0028201D01*
X0109820Y0028201D01*
X0110304Y0027717D01*
X0108369Y0025782D01*
X0108852Y0025298D01*
X0109820Y0025298D01*
X0110304Y0025782D01*
X0110304Y0027717D01*
X0108369Y0027717D02*
X0108369Y0025782D01*
X0111315Y0025782D02*
X0111799Y0025782D01*
X0111799Y0025298D01*
X0111315Y0025298D01*
X0111315Y0025782D01*
X0112788Y0025298D02*
X0114723Y0025298D01*
X0113756Y0025298D02*
X0113756Y0028201D01*
X0112788Y0027233D01*
X0101471Y0027233D02*
X0100988Y0027233D01*
X0100020Y0026266D01*
X0100020Y0027233D02*
X0100020Y0025298D01*
X0099009Y0025782D02*
X0099009Y0026749D01*
X0098525Y0027233D01*
X0097557Y0027233D01*
X0097074Y0026749D01*
X0097074Y0025782D01*
X0097557Y0025298D01*
X0098525Y0025298D01*
X0099009Y0025782D01*
X0096062Y0025782D02*
X0095578Y0026266D01*
X0094611Y0026266D01*
X0094127Y0026749D01*
X0094611Y0027233D01*
X0096062Y0027233D01*
X0096062Y0025782D02*
X0095578Y0025298D01*
X0094127Y0025298D01*
X0084276Y0030582D02*
X0084276Y0032517D01*
X0083792Y0033001D01*
X0082825Y0033001D01*
X0082341Y0032517D01*
X0082341Y0032033D01*
X0082825Y0031549D01*
X0084276Y0031549D01*
X0084276Y0030582D02*
X0083792Y0030098D01*
X0082825Y0030098D01*
X0082341Y0030582D01*
X0081329Y0030098D02*
X0079878Y0030098D01*
X0079394Y0030582D01*
X0079394Y0031549D01*
X0079878Y0032033D01*
X0081329Y0032033D01*
X0081329Y0029614D01*
X0080846Y0029131D01*
X0080362Y0029131D01*
X0085287Y0032033D02*
X0085771Y0032517D01*
X0085771Y0033484D01*
X0070034Y0022917D02*
X0068099Y0020982D01*
X0068583Y0020498D01*
X0069551Y0020498D01*
X0070034Y0020982D01*
X0070034Y0022917D01*
X0069551Y0023401D01*
X0068583Y0023401D01*
X0068099Y0022917D01*
X0068099Y0020982D01*
X0067110Y0020982D02*
X0067110Y0020498D01*
X0066626Y0020498D01*
X0066626Y0020982D01*
X0067110Y0020982D01*
X0065615Y0021949D02*
X0063680Y0021949D01*
X0065131Y0023401D01*
X0065131Y0020498D01*
X0064655Y0025298D02*
X0064171Y0025782D01*
X0064171Y0026749D01*
X0064655Y0027233D01*
X0065622Y0027233D01*
X0066106Y0026749D01*
X0066106Y0025782D01*
X0065622Y0025298D01*
X0064655Y0025298D01*
X0063189Y0030098D02*
X0063189Y0033001D01*
X0062199Y0033484D02*
X0062199Y0032517D01*
X0061715Y0032033D01*
X0052876Y0033001D02*
X0052876Y0030098D01*
X0051886Y0028684D02*
X0051886Y0028201D01*
X0051886Y0027233D02*
X0051403Y0027233D01*
X0048947Y0023401D02*
X0048947Y0022917D01*
X0042043Y0020982D02*
X0041559Y0020498D01*
X0040591Y0020498D01*
X0040108Y0020982D01*
X0039096Y0022917D02*
X0038612Y0023401D01*
X0037645Y0023401D01*
X0037161Y0022917D01*
X0364161Y0148072D02*
X0364778Y0147454D01*
X0366013Y0147454D01*
X0366630Y0148072D01*
X0366630Y0149306D01*
X0366013Y0149923D01*
X0364778Y0149923D01*
X0364161Y0149306D01*
X0364161Y0148072D01*
X0366013Y0146240D02*
X0366013Y0143771D01*
X0366013Y0142557D02*
X0366013Y0140088D01*
X0364778Y0151138D02*
X0367247Y0151138D01*
X0367864Y0151755D01*
X0367864Y0152989D01*
X0367247Y0153606D01*
X0364778Y0153606D01*
X0364161Y0152989D01*
X0364161Y0151755D01*
X0364778Y0151138D01*
X0364778Y0154821D02*
X0367247Y0154821D01*
X0367864Y0155438D01*
X0367864Y0156672D01*
X0367247Y0157289D01*
X0364778Y0157289D01*
X0364161Y0156672D01*
X0364161Y0155438D01*
X0364778Y0154821D01*
X0364778Y0158504D02*
X0366013Y0158504D01*
X0366630Y0159121D01*
X0366630Y0160355D01*
X0366013Y0160973D01*
X0364778Y0160973D01*
X0364161Y0160355D01*
X0364161Y0159121D01*
X0364778Y0158504D01*
X0363544Y0162187D02*
X0363544Y0164656D01*
X0363544Y0165870D02*
X0363544Y0168339D01*
X0365395Y0169560D02*
X0366630Y0169560D01*
X0367864Y0170794D01*
X0370161Y0170177D02*
X0370778Y0170794D01*
X0372013Y0170794D01*
X0372630Y0170177D01*
X0372630Y0168943D01*
X0372013Y0168326D01*
X0370778Y0168326D01*
X0370161Y0168943D01*
X0370161Y0170177D01*
X0370161Y0167111D02*
X0371395Y0165877D01*
X0372630Y0165877D01*
X0373864Y0167111D01*
X0376161Y0172022D02*
X0379864Y0169553D01*
X0379864Y0173250D02*
X0376161Y0173250D01*
X0376161Y0174464D02*
X0379864Y0176933D01*
X0373864Y0179382D02*
X0372630Y0180616D01*
X0371395Y0180616D01*
X0370161Y0179382D01*
X0370778Y0178161D02*
X0370161Y0177543D01*
X0370161Y0176309D01*
X0370778Y0175692D01*
X0372013Y0175692D01*
X0372630Y0176309D01*
X0372630Y0177543D01*
X0372013Y0178161D01*
X0370778Y0178161D01*
X0367864Y0175698D02*
X0366630Y0176933D01*
X0365395Y0176933D01*
X0364161Y0175698D01*
X0363544Y0174477D02*
X0363544Y0172009D01*
X0364161Y0170794D02*
X0365395Y0169560D01*
X0363544Y0178147D02*
X0363544Y0180616D01*
X0363544Y0181830D02*
X0363544Y0184299D01*
X0364778Y0185514D02*
X0366013Y0185514D01*
X0366630Y0186131D01*
X0366630Y0187365D01*
X0366013Y0187982D01*
X0364778Y0187982D01*
X0364161Y0187365D01*
X0364161Y0186131D01*
X0364778Y0185514D01*
X0364778Y0189197D02*
X0367247Y0189197D01*
X0367864Y0189814D01*
X0367864Y0191048D01*
X0367247Y0191665D01*
X0364778Y0191665D01*
X0364161Y0191048D01*
X0364161Y0189814D01*
X0364778Y0189197D01*
X0364778Y0192880D02*
X0367247Y0192880D01*
X0367864Y0193497D01*
X0367864Y0194731D01*
X0367247Y0195349D01*
X0364778Y0195349D01*
X0364161Y0194731D01*
X0364161Y0193497D01*
X0364778Y0192880D01*
X0364778Y0196563D02*
X0366013Y0196563D01*
X0366630Y0197180D01*
X0366630Y0198415D01*
X0366013Y0199032D01*
X0364778Y0199032D01*
X0364161Y0198415D01*
X0364161Y0197180D01*
X0364778Y0196563D01*
X0363544Y0200246D02*
X0363544Y0202715D01*
X0363544Y0203929D02*
X0363544Y0206398D01*
D14*
X0347560Y0205598D02*
X0344557Y0205598D01*
X0346058Y0205598D02*
X0346058Y0210102D01*
X0344557Y0208601D01*
X0342956Y0209351D02*
X0342956Y0207850D01*
X0342205Y0207099D01*
X0339953Y0207099D01*
X0339953Y0205598D02*
X0339953Y0210102D01*
X0342205Y0210102D01*
X0342956Y0209351D01*
X0338352Y0210102D02*
X0336851Y0210102D01*
X0337601Y0210102D02*
X0337601Y0206349D01*
X0336851Y0205598D01*
X0336100Y0205598D01*
X0335349Y0206349D01*
X0336851Y0140102D02*
X0338352Y0140102D01*
X0337601Y0140102D02*
X0337601Y0136349D01*
X0336851Y0135598D01*
X0336100Y0135598D01*
X0335349Y0136349D01*
X0339953Y0137099D02*
X0342205Y0137099D01*
X0342956Y0137850D01*
X0342956Y0139351D01*
X0342205Y0140102D01*
X0339953Y0140102D01*
X0339953Y0135598D01*
X0344557Y0135598D02*
X0347560Y0138601D01*
X0347560Y0139351D01*
X0346809Y0140102D01*
X0345308Y0140102D01*
X0344557Y0139351D01*
X0344557Y0135598D02*
X0347560Y0135598D01*
X0350350Y0117253D02*
X0046950Y0117253D01*
X0046950Y0035953D01*
X0350350Y0035953D01*
X0350350Y0117253D01*
X0378650Y0081603D02*
X0378650Y0071603D01*
X0373650Y0076603D02*
X0383650Y0076603D01*
X0306150Y0029103D02*
X0306150Y0024103D01*
X0303650Y0026603D02*
X0308650Y0026603D01*
X0301150Y0024103D02*
X0298650Y0024103D01*
X0298650Y0029103D01*
X0301150Y0029103D01*
X0301150Y0024103D01*
X0298650Y0024103D02*
X0298650Y0021603D01*
X0258650Y0021603D01*
X0258650Y0031603D01*
X0298650Y0031603D01*
X0298650Y0029103D01*
X0256150Y0026603D02*
X0251150Y0026603D01*
X0218650Y0071603D02*
X0218650Y0074103D01*
X0221150Y0074103D01*
X0221150Y0079103D01*
X0218650Y0079103D01*
X0218650Y0081603D01*
X0178650Y0081603D01*
X0178650Y0071603D01*
X0218650Y0071603D01*
X0218650Y0074103D02*
X0218650Y0079103D01*
X0171021Y0140628D02*
X0169119Y0140628D01*
X0169119Y0141578D01*
X0169436Y0141895D01*
X0170070Y0141895D01*
X0170387Y0141578D01*
X0170387Y0140628D01*
X0170387Y0141261D02*
X0171021Y0141895D01*
X0170070Y0142837D02*
X0170070Y0144105D01*
X0169119Y0143788D02*
X0170070Y0142837D01*
X0171021Y0143788D02*
X0169119Y0143788D01*
X0148613Y0145052D02*
X0148613Y0146554D01*
X0148613Y0145803D02*
X0144109Y0145803D01*
X0144109Y0145052D02*
X0144109Y0146554D01*
X0144860Y0148122D02*
X0147862Y0148122D01*
X0148613Y0148872D01*
X0148613Y0150374D01*
X0147862Y0151124D01*
X0148613Y0152726D02*
X0145610Y0155728D01*
X0144860Y0155728D01*
X0144109Y0154977D01*
X0144109Y0153476D01*
X0144860Y0152726D01*
X0144860Y0151124D02*
X0144109Y0150374D01*
X0144109Y0148872D01*
X0144860Y0148122D01*
X0148613Y0152726D02*
X0148613Y0155728D01*
X0150930Y0189919D02*
X0150930Y0190870D01*
X0151247Y0191187D01*
X0151881Y0191187D01*
X0152198Y0190870D01*
X0152198Y0189919D01*
X0152198Y0190553D02*
X0152832Y0191187D01*
X0152832Y0192129D02*
X0151564Y0193396D01*
X0151247Y0193396D01*
X0150930Y0193080D01*
X0150930Y0192446D01*
X0151247Y0192129D01*
X0152832Y0192129D02*
X0152832Y0193396D01*
X0152832Y0189919D02*
X0150930Y0189919D01*
X0159389Y0191179D02*
X0159389Y0192130D01*
X0159705Y0192446D01*
X0160339Y0192446D01*
X0160656Y0192130D01*
X0160656Y0191179D01*
X0160656Y0191813D02*
X0161290Y0192446D01*
X0160973Y0193389D02*
X0161290Y0193706D01*
X0161290Y0194339D01*
X0160973Y0194656D01*
X0160656Y0194656D01*
X0160339Y0194339D01*
X0160339Y0194022D01*
X0160339Y0194339D02*
X0160022Y0194656D01*
X0159705Y0194656D01*
X0159389Y0194339D01*
X0159389Y0193706D01*
X0159705Y0193389D01*
X0159389Y0191179D02*
X0161290Y0191179D01*
X0134494Y0194453D02*
X0133226Y0194453D01*
X0134494Y0195721D01*
X0134494Y0196038D01*
X0134177Y0196355D01*
X0133543Y0196355D01*
X0133226Y0196038D01*
X0132284Y0196355D02*
X0131650Y0196355D01*
X0131967Y0196355D02*
X0131967Y0194770D01*
X0131650Y0194453D01*
X0131333Y0194453D01*
X0131016Y0194770D01*
X0121199Y0194792D02*
X0121201Y0194859D01*
X0121207Y0194925D01*
X0121217Y0194991D01*
X0121231Y0195056D01*
X0121248Y0195120D01*
X0121270Y0195183D01*
X0121295Y0195245D01*
X0121324Y0195305D01*
X0121357Y0195363D01*
X0121392Y0195419D01*
X0121432Y0195473D01*
X0121474Y0195524D01*
X0121519Y0195573D01*
X0121567Y0195619D01*
X0121618Y0195662D01*
X0121671Y0195702D01*
X0121727Y0195739D01*
X0121785Y0195772D01*
X0121844Y0195802D01*
X0121905Y0195828D01*
X0121968Y0195851D01*
X0122032Y0195869D01*
X0122097Y0195884D01*
X0122163Y0195895D01*
X0122229Y0195902D01*
X0122295Y0195905D01*
X0122362Y0195904D01*
X0122428Y0195899D01*
X0122494Y0195890D01*
X0122560Y0195877D01*
X0122624Y0195860D01*
X0122687Y0195840D01*
X0122749Y0195815D01*
X0122810Y0195787D01*
X0122869Y0195756D01*
X0122925Y0195721D01*
X0122980Y0195683D01*
X0123032Y0195641D01*
X0123081Y0195596D01*
X0123128Y0195549D01*
X0123172Y0195499D01*
X0123212Y0195446D01*
X0123250Y0195391D01*
X0123284Y0195334D01*
X0123315Y0195275D01*
X0123342Y0195214D01*
X0123365Y0195152D01*
X0123385Y0195088D01*
X0123401Y0195023D01*
X0123413Y0194958D01*
X0123421Y0194892D01*
X0123425Y0194825D01*
X0123425Y0194759D01*
X0123421Y0194692D01*
X0123413Y0194626D01*
X0123401Y0194561D01*
X0123385Y0194496D01*
X0123365Y0194432D01*
X0123342Y0194370D01*
X0123315Y0194309D01*
X0123284Y0194250D01*
X0123250Y0194193D01*
X0123212Y0194138D01*
X0123172Y0194085D01*
X0123128Y0194035D01*
X0123081Y0193988D01*
X0123032Y0193943D01*
X0122980Y0193901D01*
X0122925Y0193863D01*
X0122868Y0193828D01*
X0122810Y0193797D01*
X0122749Y0193769D01*
X0122687Y0193744D01*
X0122624Y0193724D01*
X0122560Y0193707D01*
X0122494Y0193694D01*
X0122428Y0193685D01*
X0122362Y0193680D01*
X0122295Y0193679D01*
X0122229Y0193682D01*
X0122163Y0193689D01*
X0122097Y0193700D01*
X0122032Y0193715D01*
X0121968Y0193733D01*
X0121905Y0193756D01*
X0121844Y0193782D01*
X0121785Y0193812D01*
X0121727Y0193845D01*
X0121671Y0193882D01*
X0121618Y0193922D01*
X0121567Y0193965D01*
X0121519Y0194011D01*
X0121474Y0194060D01*
X0121432Y0194111D01*
X0121392Y0194165D01*
X0121357Y0194221D01*
X0121324Y0194279D01*
X0121295Y0194339D01*
X0121270Y0194401D01*
X0121248Y0194464D01*
X0121231Y0194528D01*
X0121217Y0194593D01*
X0121207Y0194659D01*
X0121201Y0194725D01*
X0121199Y0194792D01*
X0090430Y0193396D02*
X0090430Y0192129D01*
X0090430Y0192763D02*
X0088529Y0192763D01*
X0089163Y0192129D01*
X0089480Y0191187D02*
X0089796Y0190870D01*
X0089796Y0189919D01*
X0089796Y0190553D02*
X0090430Y0191187D01*
X0089480Y0191187D02*
X0088846Y0191187D01*
X0088529Y0190870D01*
X0088529Y0189919D01*
X0090430Y0189919D01*
X0069966Y0194453D02*
X0068698Y0194453D01*
X0069332Y0194453D02*
X0069332Y0196355D01*
X0068698Y0195721D01*
X0067756Y0196355D02*
X0067122Y0196355D01*
X0067439Y0196355D02*
X0067439Y0194770D01*
X0067122Y0194453D01*
X0066805Y0194453D01*
X0066488Y0194770D01*
X0056671Y0194792D02*
X0056673Y0194859D01*
X0056679Y0194925D01*
X0056689Y0194991D01*
X0056703Y0195056D01*
X0056720Y0195120D01*
X0056742Y0195183D01*
X0056767Y0195245D01*
X0056796Y0195305D01*
X0056829Y0195363D01*
X0056864Y0195419D01*
X0056904Y0195473D01*
X0056946Y0195524D01*
X0056991Y0195573D01*
X0057039Y0195619D01*
X0057090Y0195662D01*
X0057143Y0195702D01*
X0057199Y0195739D01*
X0057257Y0195772D01*
X0057316Y0195802D01*
X0057377Y0195828D01*
X0057440Y0195851D01*
X0057504Y0195869D01*
X0057569Y0195884D01*
X0057635Y0195895D01*
X0057701Y0195902D01*
X0057767Y0195905D01*
X0057834Y0195904D01*
X0057900Y0195899D01*
X0057966Y0195890D01*
X0058032Y0195877D01*
X0058096Y0195860D01*
X0058159Y0195840D01*
X0058221Y0195815D01*
X0058282Y0195787D01*
X0058341Y0195756D01*
X0058397Y0195721D01*
X0058452Y0195683D01*
X0058504Y0195641D01*
X0058553Y0195596D01*
X0058600Y0195549D01*
X0058644Y0195499D01*
X0058684Y0195446D01*
X0058722Y0195391D01*
X0058756Y0195334D01*
X0058787Y0195275D01*
X0058814Y0195214D01*
X0058837Y0195152D01*
X0058857Y0195088D01*
X0058873Y0195023D01*
X0058885Y0194958D01*
X0058893Y0194892D01*
X0058897Y0194825D01*
X0058897Y0194759D01*
X0058893Y0194692D01*
X0058885Y0194626D01*
X0058873Y0194561D01*
X0058857Y0194496D01*
X0058837Y0194432D01*
X0058814Y0194370D01*
X0058787Y0194309D01*
X0058756Y0194250D01*
X0058722Y0194193D01*
X0058684Y0194138D01*
X0058644Y0194085D01*
X0058600Y0194035D01*
X0058553Y0193988D01*
X0058504Y0193943D01*
X0058452Y0193901D01*
X0058397Y0193863D01*
X0058340Y0193828D01*
X0058282Y0193797D01*
X0058221Y0193769D01*
X0058159Y0193744D01*
X0058096Y0193724D01*
X0058032Y0193707D01*
X0057966Y0193694D01*
X0057900Y0193685D01*
X0057834Y0193680D01*
X0057767Y0193679D01*
X0057701Y0193682D01*
X0057635Y0193689D01*
X0057569Y0193700D01*
X0057504Y0193715D01*
X0057440Y0193733D01*
X0057377Y0193756D01*
X0057316Y0193782D01*
X0057257Y0193812D01*
X0057199Y0193845D01*
X0057143Y0193882D01*
X0057090Y0193922D01*
X0057039Y0193965D01*
X0056991Y0194011D01*
X0056946Y0194060D01*
X0056904Y0194111D01*
X0056864Y0194165D01*
X0056829Y0194221D01*
X0056796Y0194279D01*
X0056767Y0194339D01*
X0056742Y0194401D01*
X0056720Y0194464D01*
X0056703Y0194528D01*
X0056689Y0194593D01*
X0056679Y0194659D01*
X0056673Y0194725D01*
X0056671Y0194792D01*
X0067117Y0155728D02*
X0067117Y0152726D01*
X0067117Y0154227D02*
X0062613Y0154227D01*
X0064114Y0152726D01*
X0063364Y0151124D02*
X0062613Y0150374D01*
X0062613Y0148872D01*
X0063364Y0148122D01*
X0066366Y0148122D01*
X0067117Y0148872D01*
X0067117Y0150374D01*
X0066366Y0151124D01*
X0067117Y0146554D02*
X0067117Y0145052D01*
X0067117Y0145803D02*
X0062613Y0145803D01*
X0062613Y0145052D02*
X0062613Y0146554D01*
X0023650Y0076603D02*
X0013650Y0076603D01*
D15*
X0053867Y0153080D02*
X0053869Y0153179D01*
X0053875Y0153279D01*
X0053885Y0153378D01*
X0053899Y0153476D01*
X0053916Y0153574D01*
X0053938Y0153671D01*
X0053963Y0153767D01*
X0053992Y0153862D01*
X0054025Y0153956D01*
X0054062Y0154048D01*
X0054102Y0154139D01*
X0054146Y0154228D01*
X0054194Y0154316D01*
X0054245Y0154401D01*
X0054299Y0154484D01*
X0054356Y0154566D01*
X0054417Y0154644D01*
X0054481Y0154721D01*
X0054547Y0154794D01*
X0054617Y0154865D01*
X0054689Y0154933D01*
X0054764Y0154999D01*
X0054842Y0155061D01*
X0054922Y0155120D01*
X0055004Y0155176D01*
X0055088Y0155228D01*
X0055175Y0155277D01*
X0055263Y0155323D01*
X0055353Y0155365D01*
X0055445Y0155404D01*
X0055538Y0155439D01*
X0055632Y0155470D01*
X0055728Y0155497D01*
X0055825Y0155520D01*
X0055922Y0155540D01*
X0056020Y0155556D01*
X0056119Y0155568D01*
X0056218Y0155576D01*
X0056317Y0155580D01*
X0056417Y0155580D01*
X0056516Y0155576D01*
X0056615Y0155568D01*
X0056714Y0155556D01*
X0056812Y0155540D01*
X0056909Y0155520D01*
X0057006Y0155497D01*
X0057102Y0155470D01*
X0057196Y0155439D01*
X0057289Y0155404D01*
X0057381Y0155365D01*
X0057471Y0155323D01*
X0057559Y0155277D01*
X0057646Y0155228D01*
X0057730Y0155176D01*
X0057812Y0155120D01*
X0057892Y0155061D01*
X0057970Y0154999D01*
X0058045Y0154933D01*
X0058117Y0154865D01*
X0058187Y0154794D01*
X0058253Y0154721D01*
X0058317Y0154644D01*
X0058378Y0154566D01*
X0058435Y0154484D01*
X0058489Y0154401D01*
X0058540Y0154316D01*
X0058588Y0154228D01*
X0058632Y0154139D01*
X0058672Y0154048D01*
X0058709Y0153956D01*
X0058742Y0153862D01*
X0058771Y0153767D01*
X0058796Y0153671D01*
X0058818Y0153574D01*
X0058835Y0153476D01*
X0058849Y0153378D01*
X0058859Y0153279D01*
X0058865Y0153179D01*
X0058867Y0153080D01*
X0058865Y0152981D01*
X0058859Y0152881D01*
X0058849Y0152782D01*
X0058835Y0152684D01*
X0058818Y0152586D01*
X0058796Y0152489D01*
X0058771Y0152393D01*
X0058742Y0152298D01*
X0058709Y0152204D01*
X0058672Y0152112D01*
X0058632Y0152021D01*
X0058588Y0151932D01*
X0058540Y0151844D01*
X0058489Y0151759D01*
X0058435Y0151676D01*
X0058378Y0151594D01*
X0058317Y0151516D01*
X0058253Y0151439D01*
X0058187Y0151366D01*
X0058117Y0151295D01*
X0058045Y0151227D01*
X0057970Y0151161D01*
X0057892Y0151099D01*
X0057812Y0151040D01*
X0057730Y0150984D01*
X0057646Y0150932D01*
X0057559Y0150883D01*
X0057471Y0150837D01*
X0057381Y0150795D01*
X0057289Y0150756D01*
X0057196Y0150721D01*
X0057102Y0150690D01*
X0057006Y0150663D01*
X0056909Y0150640D01*
X0056812Y0150620D01*
X0056714Y0150604D01*
X0056615Y0150592D01*
X0056516Y0150584D01*
X0056417Y0150580D01*
X0056317Y0150580D01*
X0056218Y0150584D01*
X0056119Y0150592D01*
X0056020Y0150604D01*
X0055922Y0150620D01*
X0055825Y0150640D01*
X0055728Y0150663D01*
X0055632Y0150690D01*
X0055538Y0150721D01*
X0055445Y0150756D01*
X0055353Y0150795D01*
X0055263Y0150837D01*
X0055175Y0150883D01*
X0055088Y0150932D01*
X0055004Y0150984D01*
X0054922Y0151040D01*
X0054842Y0151099D01*
X0054764Y0151161D01*
X0054689Y0151227D01*
X0054617Y0151295D01*
X0054547Y0151366D01*
X0054481Y0151439D01*
X0054417Y0151516D01*
X0054356Y0151594D01*
X0054299Y0151676D01*
X0054245Y0151759D01*
X0054194Y0151844D01*
X0054146Y0151932D01*
X0054102Y0152021D01*
X0054062Y0152112D01*
X0054025Y0152204D01*
X0053992Y0152298D01*
X0053963Y0152393D01*
X0053938Y0152489D01*
X0053916Y0152586D01*
X0053899Y0152684D01*
X0053885Y0152782D01*
X0053875Y0152881D01*
X0053869Y0152981D01*
X0053867Y0153080D01*
X0135363Y0153080D02*
X0135365Y0153179D01*
X0135371Y0153279D01*
X0135381Y0153378D01*
X0135395Y0153476D01*
X0135412Y0153574D01*
X0135434Y0153671D01*
X0135459Y0153767D01*
X0135488Y0153862D01*
X0135521Y0153956D01*
X0135558Y0154048D01*
X0135598Y0154139D01*
X0135642Y0154228D01*
X0135690Y0154316D01*
X0135741Y0154401D01*
X0135795Y0154484D01*
X0135852Y0154566D01*
X0135913Y0154644D01*
X0135977Y0154721D01*
X0136043Y0154794D01*
X0136113Y0154865D01*
X0136185Y0154933D01*
X0136260Y0154999D01*
X0136338Y0155061D01*
X0136418Y0155120D01*
X0136500Y0155176D01*
X0136584Y0155228D01*
X0136671Y0155277D01*
X0136759Y0155323D01*
X0136849Y0155365D01*
X0136941Y0155404D01*
X0137034Y0155439D01*
X0137128Y0155470D01*
X0137224Y0155497D01*
X0137321Y0155520D01*
X0137418Y0155540D01*
X0137516Y0155556D01*
X0137615Y0155568D01*
X0137714Y0155576D01*
X0137813Y0155580D01*
X0137913Y0155580D01*
X0138012Y0155576D01*
X0138111Y0155568D01*
X0138210Y0155556D01*
X0138308Y0155540D01*
X0138405Y0155520D01*
X0138502Y0155497D01*
X0138598Y0155470D01*
X0138692Y0155439D01*
X0138785Y0155404D01*
X0138877Y0155365D01*
X0138967Y0155323D01*
X0139055Y0155277D01*
X0139142Y0155228D01*
X0139226Y0155176D01*
X0139308Y0155120D01*
X0139388Y0155061D01*
X0139466Y0154999D01*
X0139541Y0154933D01*
X0139613Y0154865D01*
X0139683Y0154794D01*
X0139749Y0154721D01*
X0139813Y0154644D01*
X0139874Y0154566D01*
X0139931Y0154484D01*
X0139985Y0154401D01*
X0140036Y0154316D01*
X0140084Y0154228D01*
X0140128Y0154139D01*
X0140168Y0154048D01*
X0140205Y0153956D01*
X0140238Y0153862D01*
X0140267Y0153767D01*
X0140292Y0153671D01*
X0140314Y0153574D01*
X0140331Y0153476D01*
X0140345Y0153378D01*
X0140355Y0153279D01*
X0140361Y0153179D01*
X0140363Y0153080D01*
X0140361Y0152981D01*
X0140355Y0152881D01*
X0140345Y0152782D01*
X0140331Y0152684D01*
X0140314Y0152586D01*
X0140292Y0152489D01*
X0140267Y0152393D01*
X0140238Y0152298D01*
X0140205Y0152204D01*
X0140168Y0152112D01*
X0140128Y0152021D01*
X0140084Y0151932D01*
X0140036Y0151844D01*
X0139985Y0151759D01*
X0139931Y0151676D01*
X0139874Y0151594D01*
X0139813Y0151516D01*
X0139749Y0151439D01*
X0139683Y0151366D01*
X0139613Y0151295D01*
X0139541Y0151227D01*
X0139466Y0151161D01*
X0139388Y0151099D01*
X0139308Y0151040D01*
X0139226Y0150984D01*
X0139142Y0150932D01*
X0139055Y0150883D01*
X0138967Y0150837D01*
X0138877Y0150795D01*
X0138785Y0150756D01*
X0138692Y0150721D01*
X0138598Y0150690D01*
X0138502Y0150663D01*
X0138405Y0150640D01*
X0138308Y0150620D01*
X0138210Y0150604D01*
X0138111Y0150592D01*
X0138012Y0150584D01*
X0137913Y0150580D01*
X0137813Y0150580D01*
X0137714Y0150584D01*
X0137615Y0150592D01*
X0137516Y0150604D01*
X0137418Y0150620D01*
X0137321Y0150640D01*
X0137224Y0150663D01*
X0137128Y0150690D01*
X0137034Y0150721D01*
X0136941Y0150756D01*
X0136849Y0150795D01*
X0136759Y0150837D01*
X0136671Y0150883D01*
X0136584Y0150932D01*
X0136500Y0150984D01*
X0136418Y0151040D01*
X0136338Y0151099D01*
X0136260Y0151161D01*
X0136185Y0151227D01*
X0136113Y0151295D01*
X0136043Y0151366D01*
X0135977Y0151439D01*
X0135913Y0151516D01*
X0135852Y0151594D01*
X0135795Y0151676D01*
X0135741Y0151759D01*
X0135690Y0151844D01*
X0135642Y0151932D01*
X0135598Y0152021D01*
X0135558Y0152112D01*
X0135521Y0152204D01*
X0135488Y0152298D01*
X0135459Y0152393D01*
X0135434Y0152489D01*
X0135412Y0152586D01*
X0135395Y0152684D01*
X0135381Y0152782D01*
X0135371Y0152881D01*
X0135365Y0152981D01*
X0135363Y0153080D01*
D16*
X0161871Y0152587D02*
X0164871Y0152587D01*
X0164871Y0153587D01*
X0164871Y0152587D02*
X0167871Y0152587D01*
X0167871Y0132587D01*
X0164871Y0132587D01*
X0164871Y0131587D01*
X0164871Y0132587D02*
X0161871Y0132587D01*
X0161871Y0152587D01*
X0165540Y0182139D02*
X0165540Y0183139D01*
X0162540Y0183139D01*
X0162540Y0203139D01*
X0165540Y0203139D01*
X0165540Y0204139D01*
X0165540Y0203139D02*
X0168540Y0203139D01*
X0168540Y0183139D01*
X0165540Y0183139D01*
X0149682Y0181879D02*
X0146682Y0181879D01*
X0146682Y0180879D01*
X0146682Y0181879D02*
X0143682Y0181879D01*
X0143682Y0201879D01*
X0146682Y0201879D01*
X0146682Y0202879D01*
X0146682Y0201879D02*
X0149682Y0201879D01*
X0149682Y0181879D01*
X0137076Y0193217D02*
X0137076Y0217627D01*
X0109517Y0217627D01*
X0109517Y0220776D01*
X0137076Y0220776D01*
X0137076Y0217627D01*
X0137076Y0215855D02*
X0139044Y0215855D01*
X0139044Y0211918D01*
X0137076Y0211918D01*
X0109517Y0217627D02*
X0109517Y0193217D01*
X0137076Y0193217D01*
X0109517Y0194202D02*
X0107548Y0194202D01*
X0107548Y0198139D01*
X0109517Y0198139D01*
X0087280Y0201879D02*
X0084280Y0201879D01*
X0084280Y0202879D01*
X0084280Y0201879D02*
X0081280Y0201879D01*
X0081280Y0181879D01*
X0084280Y0181879D01*
X0084280Y0180879D01*
X0084280Y0181879D02*
X0087280Y0181879D01*
X0087280Y0201879D01*
X0074517Y0211918D02*
X0074517Y0215855D01*
X0072548Y0215855D01*
X0072548Y0217627D02*
X0044989Y0217627D01*
X0044989Y0220776D01*
X0072548Y0220776D01*
X0072548Y0217627D01*
X0072548Y0193217D01*
X0044989Y0193217D01*
X0044989Y0217627D01*
X0072548Y0211918D02*
X0074517Y0211918D01*
X0044989Y0198139D02*
X0043020Y0198139D01*
X0043020Y0194202D01*
X0044989Y0194202D01*
D17*
X0203611Y0217548D03*
X0213611Y0217548D03*
X0223611Y0217548D03*
X0233611Y0217548D03*
X0243611Y0217548D03*
X0253611Y0217548D03*
X0263611Y0217548D03*
X0273611Y0217548D03*
X0283611Y0217548D03*
X0293611Y0217548D03*
X0303611Y0217548D03*
X0313611Y0217548D03*
X0323611Y0217548D03*
X0333611Y0217548D03*
X0343611Y0217548D03*
X0343611Y0127548D03*
X0333611Y0127548D03*
X0323611Y0127548D03*
X0313611Y0127548D03*
X0303611Y0127548D03*
X0293611Y0127548D03*
X0283611Y0127548D03*
X0273611Y0127548D03*
X0263611Y0127548D03*
X0253611Y0127548D03*
X0243611Y0127548D03*
X0233611Y0127548D03*
X0223611Y0127548D03*
X0213611Y0127548D03*
X0203611Y0127548D03*
M02*
